# Alias OBJ Model File
# Exported from SketchUp, (c) 2000-2012 Trimble Navigation Limited
# File units = inches

mtllib esperma2.mtl

g Mesh1 Sphere_001 G_3cb6_1bc6_1dd2_aaae1 Model

usemtl Color_M00
v 3.04319 -3.55398 2.79409
vt 3.04319 -3.55398
vn 0.621876 -0.621876 0.475963
v -4.9035 -3.55398 2.79409
vt -4.9035 -3.55398
vn -0.621876 -0.621876 0.475963
v -0.930157 -5.1998 2.79409
vt -0.930157 -5.1998
vn -4.66444e-009 -0.879465 0.475964
f 1/1/1 2/2/2 3/3/3

v -0.930157 -2.54535 2.79409
vt -0.930157 -2.54535
vn 0.00166273 -0.86313 0.504979
f 2/2/2 1/1/1 4/4/4

v 1.16622 -1.67701 2.79409
vt 1.16622 -1.67701
vn 0.661934 -0.670834 0.334403
f 4/4/4 1/1/1 5/5/5

v 4.68902 0.41937 2.79409
vt 4.68902 0.41937
vn 0.879465 1.16611e-008 0.475964
f 5/5/5 1/1/1 6/6/6

v 4.68902 0.41937 -2.65008
vt 2.65008 2.18187
vn 0.870293 1.28558e-008 0.492534
vt -2.79409 2.18187
vt -2.79409 -2.11886
v 3.04319 -3.55398 -2.65008
vt 2.65008 -2.11886
vn 0.61539 -0.61539 0.492534
f 7/7/7 6/8/6 1/9/1 8/10/8 

v 3.04319 4.39272 -2.65008
vt 2.65008 2.89375
vn 0.61539 0.61539 0.492534
v 3.04319 4.39272 2.79409
vt -2.79409 2.89375
vn 0.621876 0.621876 0.475963
vt -2.79409 -1.40697
vt 2.65008 -1.40697
f 9/11/9 10/12/10 6/13/6 7/14/7 

v -0.930157 6.03854 -2.65012
vt 2.65012 3.17022
vn -4.19988e-007 0.870292 0.492535
v -0.930157 6.03854 2.79409
vt -2.79409 3.17022
vn -4.66444e-009 0.879465 0.475964
vt -2.79409 -1.13051
vt 2.65008 -1.13051
f 11/15/11 12/16/12 10/17/10 9/18/9 

v -4.9035 4.39272 -2.65012
vt -2.65012 -2.84921
vn -0.61539 0.61539 0.492535
v -4.9035 4.39272 2.79409
vt 2.79409 -2.84921
vn -0.621876 0.621876 0.475963
vt 2.79409 1.45151
vt -2.65012 1.45151
f 13/19/13 14/20/14 12/21/12 11/22/11 

v -6.54933 0.41937 -2.65012
vt -2.65012 -2.11889
vn -0.870292 1.28558e-008 0.492536
v -6.54933 0.41937 2.79409
vt 2.79409 -2.11889
vn -0.879465 1.16611e-008 0.475964
vt 2.79409 2.18183
vt -2.65012 2.18183
f 15/23/15 16/24/16 14/25/14 13/26/13 

v -4.9035 -3.55398 -2.65012
vt -2.65012 -1.40694
vn -0.61539 -0.61539 0.492535
vt 2.79409 -1.40694
vt 2.79409 2.89378
vt -2.65012 2.89378
f 17/27/17 2/28/2 16/29/16 15/30/15 

v -0.930157 -5.1998 -2.65012
vt -2.65012 -1.13054
vn -4.19988e-007 -0.870292 0.492535
vt 2.79409 -1.13054
vt 2.79409 3.17019
vt -2.65012 3.17019
f 18/31/18 3/32/3 2/33/2 17/34/17 

vt 2.65008 1.45148
vt -2.79409 1.45148
vt -2.79409 -2.84924
vt 2.65012 -2.84924
f 8/35/8 1/36/1 3/37/3 18/38/18 

v -0.930157 -11.8513 -6.92008
vt 0.879364 -13.7223
vn -6.79915e-007 -0.895019 0.446028
v 7.74657 -8.25732 -6.92008
vt 9.26472 -9.49286
vn 0.632874 -0.632874 0.446027
vt 3.622 -3.95789
vt -0.217908 -5.89473
f 19/39/19 20/40/20 8/41/8 18/42/18 

vt 6.92849 -3.87127
v -0.930157 -11.2425 -12.4935
vt 12.3177 -2.32504
vn -2.16591e-007 -0.993911 -0.110187
v 7.31602 -7.82681 -12.4935
vt 10.2148 6.3493
vn 0.702801 -0.702802 -0.110187
vt 4.7158 5.25598
f 19/43/19 21/44/21 22/45/22 20/46/20 

v -9.60685 -8.25732 -6.92008
vt -4.24145 6.90941
vn -0.632874 -0.632874 0.446028
v -9.17634 -7.82681 -12.4935
vt -9.74043 8.00275
vn -0.702801 -0.702801 -0.110186
vt -11.8433 -0.671601
vt -6.45409 -2.21781
f 23/47/23 24/48/24 21/49/21 19/50/19 

v -13.2009 0.41937 -6.92008
vt -5.44562 5.6704
vn -0.895019 6.39054e-008 0.446028
v -12.592 0.41937 -12.4935
vt -11.0522 5.6704
vn -0.993911 -8.72671e-008 -0.110186
vt -11.4232 -3.24749
vt -5.83591 -3.71307
f 25/51/25 26/52/26 24/53/24 23/54/23 

v -9.60685 9.09606 -6.92008
vt -5.8359 4.48863
vn -0.632874 0.632873 0.446029
v -9.17634 8.66555 -12.4935
vt -11.4231 4.02305
vn -0.702802 0.702801 -0.110185
vt -11.0522 -4.89484
vt -5.44561 -4.89484
f 27/55/27 28/56/28 26/57/26 25/58/25 

v -0.930157 12.6901 -6.92008
vt -6.45411 2.54814
vn -6.79917e-007 0.895019 0.446029
v -0.930157 12.0813 -12.4935
vt -11.8433 1.00199
vn 2.56014e-007 0.993911 -0.110186
vt -9.74048 -7.67238
vt -4.24153 -6.57909
f 29/59/29 30/60/30 28/61/28 27/62/27 

v 7.74657 9.09606 -6.92008
vt 4.71587 -4.92566
vn 0.632874 0.632874 0.446028
v 7.31602 8.66555 -12.4935
vt 10.2148 -6.01894
vn 0.702801 0.702801 -0.110187
vt 12.3177 2.65543
vt 6.92849 4.2016
f 31/63/31 32/64/32 30/65/30 29/66/29 

v 11.3406 0.41937 -6.92008
vt 5.64763 -4.19072
vn 0.89502 6.39056e-008 0.446027
v 10.7317 0.41937 -12.4935
vt 11.2542 -4.19073
vn 0.993911 1.08496e-007 -0.110188
vt 11.6251 4.72718
vt 6.03792 5.19274
f 33/67/33 34/68/34 32/69/32 31/70/31 

vt 6.03792 -4.41718
vt 11.6252 -3.95161
vt 11.2543 4.96629
vt 5.64764 4.96628
f 20/71/20 22/72/22 34/73/34 33/74/33 

vt 11.5975 -3.93879
v 6.79311 -7.3039 -19.0679
vt 18.189 -3.37331
vn 0.698295 -0.698296 -0.157374
v 9.9922 0.41937 -19.0679
vt 17.8314 4.97865
vn 0.987539 -1.41734e-007 -0.157374
vt 11.2156 4.97865
f 22/75/22 35/76/35 36/77/36 34/78/34 

vt 12.3007 -2.25041
v -0.930157 -10.503 -19.0679
vt 18.6452 -0.375505
vn 1.21142e-010 -0.987539 -0.157373
vt 16.6212 7.73538
vt 10.1396 6.40962
f 21/79/21 37/80/37 35/81/35 22/82/22 

vt -9.65208 8.05938
v -8.65343 -7.3039 -19.0679
vt -16.1337 9.38513
vn -0.698296 -0.698296 -0.157372
vt -18.1577 1.27425
vt -11.8131 -0.600657
f 24/83/24 38/84/38 37/85/37 21/86/21 

vt -11.0077 5.68226
v -11.8525 0.41937 -19.0679
vt -17.6235 5.68227
vn -0.98754 -6.07397e-007 -0.157371
vt -17.9811 -2.66969
vt -11.3895 -3.23516
f 26/87/26 39/88/39 38/89/38 24/90/24 

vt -11.3895 4.01078
v -8.65343 8.14268 -19.0679
vt -17.9811 3.44535
vn -0.698296 0.698296 -0.157371
vt -17.6236 -4.90665
vt -11.0078 -4.90665
f 28/91/28 40/92/40 39/93/39 26/94/26 

vt -11.8131 0.931516
v -0.930157 11.3417 -19.0679
vt -18.1577 -0.943404
vn 1.12433e-006 0.987539 -0.157372
vt -16.1337 -9.05428
vt -9.65206 -7.72854
f 30/95/30 41/96/41 40/97/40 28/98/28 

vt 10.1395 -6.0788
v 6.79311 8.14264 -19.0679
vt 16.6212 -7.40459
vn 0.698296 0.698295 -0.157372
vt 18.6452 0.706289
vt 12.3006 2.58124
f 32/99/32 42/100/42 41/101/41 30/102/30 

vt 11.2156 -4.20305
vt 17.8314 -4.20305
vt 18.189 4.14891
vt 11.5974 4.71439
f 34/103/34 36/104/36 42/105/42 32/106/32 

vt 16.6489 -4.74106
v 8.63244 0.41937 -25.6422
vt 23.3624 -4.74105
vn 0.95719 -5.40983e-007 -0.289462
v 5.83165 7.18118 -25.6422
vt 23.9296 2.55584
vn 0.676836 0.676834 -0.289462
vt 17.2968 3.5934
f 36/107/36 43/108/43 44/109/44 42/110/42 

vt 17.2968 -2.81615
v 5.83165 -6.3424 -25.6422
vt 23.9296 -1.77855
vn 0.676836 -0.676835 -0.289461
vt 23.3623 5.51831
vt 16.6489 5.51832
f 35/111/35 45/112/45 43/113/43 36/114/36 

vt 17.475 2.56208
v -0.930157 -9.14323 -25.6422
vt 23.3568 5.79854
vn -5.33485e-009 -0.95719 -0.289461
vt 20.3361 12.465
vt 14.0247 10.1765
f 37/115/37 46/116/46 45/117/45 35/118/35 

vt -13.1937 11.6868
v -7.69197 -6.3424 -25.6422
vt -19.505 13.9754
vn -0.676835 -0.676836 -0.289461
vt -22.5257 7.30888
vt -16.6439 4.07242
f 38/119/38 47/120/47 46/121/46 37/122/37 

vt -16.2721 6.2031
v -10.4928 0.41937 -25.6422
vt -22.9856 6.2031
vn -0.957189 -8.10413e-007 -0.289462
vt -23.5529 -1.09378
vt -16.9201 -2.13136
f 39/123/39 48/124/48 47/125/47 38/126/38 

vt -16.9201 2.90866
v -7.69197 7.18118 -25.6422
vt -23.5529 1.87107
vn -0.676835 0.676835 -0.289463
vt -22.9856 -5.42584
vt -16.2721 -5.42584
f 40/127/40 49/128/49 48/129/48 39/130/39 

vt -16.6439 -3.72004
v -0.930157 9.98201 -25.6422
vt -22.5258 -6.95646
vn 6.45127e-007 0.957189 -0.289463
vt -19.5051 -13.623
vt -13.1937 -11.3344
f 41/131/41 50/132/50 49/133/49 40/134/40 

vt 14.0249 -9.82397
vt 20.3363 -12.1124
vt 23.3569 -5.44593
vt 17.475 -2.20954
f 42/135/42 44/136/44 50/137/50 41/138/41 

vt 14.3237 -15.5049
v 4.24508 5.59461 -31.2156
vt 19.4262 -18.677
vn 0.598977 0.598976 -0.531465
v -0.930157 7.73827 -31.2156
vt 23.0332 -14.3911
vn -1.15117e-008 0.84708 -0.531466
vt 19.0365 -9.90522
f 44/139/44 51/140/51 52/141/52 50/142/50 

vt 20.5632 -5.91546
v 6.38874 0.41937 -31.2156
vt 26.5713 -5.91547
vn 0.847081 -3.43374e-007 -0.531464
vt 27.3719 -0.371334
vt 21.6092 1.32832
f 43/143/43 53/144/53 51/145/51 44/146/44 

vt 21.6092 -0.545342
v 4.24508 -4.75587 -31.2156
vt 27.3719 1.15428
vn 0.598977 -0.598976 -0.531464
vt 26.5713 6.69842
vt 20.5632 6.69841
f 45/147/45 54/148/54 53/149/53 43/150/43 

vt 19.0367 10.3246
v -0.930157 -6.89953 -31.2157
vt 23.0335 14.8105
vn -1.15117e-008 -0.84708 -0.531466
vt 19.4265 19.0964
vt 14.324 15.9244
f 46/151/46 55/152/55 54/153/54 45/154/45 

vt -13.0274 17.0796
v -6.10539 -4.75587 -31.2156
vt -18.13 20.2515
vn -0.598976 -0.598975 -0.531466
vt -21.7369 15.9657
vt -17.7401 11.4798
f 47/155/47 56/156/56 55/157/55 46/158/46 

vt -19.8684 7.31747
v -8.24905 0.41937 -31.2156
vt -25.8765 7.31747
vn -0.847079 -3.43375e-007 -0.531467
vt -26.6771 1.77334
vt -20.9144 0.0737083
f 48/159/48 57/160/57 56/161/56 47/162/47 

vt -20.9144 0.709276
v -6.10539 5.59461 -31.2156
vt -26.6771 -0.99039
vn -0.598976 0.598975 -0.531466
vt -25.8765 -6.53453
vt -19.8684 -6.53453
f 49/163/49 58/164/58 57/165/57 48/166/48 

vt -17.7399 -11.0604
vt -21.7366 -15.5463
vt -18.1297 -19.8321
vt -13.0271 -16.6601
f 50/167/50 52/168/52 58/169/58 49/170/49 

vt -12.1856 -14.9604
v -0.930157 4.38035 -34.9397
vt -13.7402 -19.7278
vn 0.0370122 0.440953 -0.896767
v -3.73098 3.2202 -34.9397
vt -11.195 -21.3749
vn -0.383414 0.383412 -0.840231
vt -7.48281 -18.0039
f 52/171/52 59/172/59 60/173/60 58/174/58 

vt 9.17328 -17.4526
v 1.87067 3.2202 -34.9397
vt 12.8855 -20.8236
vn 0.373749 0.373749 -0.848895
vt 15.4306 -19.1765
vt 13.876 -14.4092
f 51/175/51 61/176/61 59/177/59 52/178/52 

vt 18.9048 -7.14055
v 3.03083 0.41937 -34.9397
vt 23.9193 -7.14055
vn 0.440953 0.0370123 -0.896767
vt 24.6962 -4.21019
vt 20.3404 -1.72597
f 53/179/53 62/180/62 61/181/61 51/182/51 

vt 20.3404 2.52764
v 1.87067 -2.38146 -34.9397
vt 24.6962 5.01186
vn 0.383413 -0.383414 -0.840231
vt 23.9193 7.94222
vt 18.9048 7.94222
f 54/183/54 63/184/63 62/185/62 53/186/53 

vt 13.876 14.9999
v -0.930157 -3.54157 -34.9397
vt 15.4305 19.7672
vn -8.95329e-009 -0.542227 -0.840232
vt 12.8854 21.4143
vt 9.1732 18.0433
f 55/187/55 64/188/64 63/189/63 54/190/54 

vt -7.48273 18.5945
v -3.73098 -2.38146 -34.9397
vt -11.195 21.9656
vn -0.383413 -0.383412 -0.840232
vt -13.7401 20.3185
vt -12.1855 15.5511
f 56/191/56 65/192/65 64/193/64 55/194/55 

vt -17.659 8.34839
v -4.8911 0.41937 -34.9397
vt -22.6735 8.34839
vn -0.542229 -4.89295e-009 -0.840231
vt -23.4503 5.41804
vt -19.0945 2.93381
f 57/195/57 66/196/66 65/197/65 56/198/56 

vt -19.0945 -2.13215
vt -23.4503 -4.61637
vt -22.6735 -7.54672
vt -17.659 -7.54673
f 58/199/58 60/200/60 66/201/66 57/202/57 

vt -6.30937 -4.05414
vt -7.411 -1.22979
v -0.930157 0.41937 -36.2474
vt -10.4806 -4.05414
vn -0.021425 -0.021425 -0.999541
f 66/203/66 60/204/60 67/205/67

vt -3.81252 -6.63831
vt -3.9897 -10.8058
vt -1.03752 -7.85896
f 59/206/59 67/207/67 60/208/60

vt 12.247 -9.80933
vt 11.8371 -5.65825
vt 8.07576 -9.80933
f 67/209/67 59/210/59 62/211/62

vt -1.87067 3.2202
vt -3.03083 0.41937
vt 0.930157 4.38035
f 61/212/61 62/213/62 59/214/59

vt 8.07576 4.8109
vt 9.17743 1.98656
vt 12.247 4.8109
f 62/215/62 63/216/63 67/217/67

vt 5.65557 7.35727
vt 5.83275 11.5247
vt 2.88057 8.57787
f 64/218/64 67/219/67 63/220/63

vt -3.81241 7.43563
vt -1.03741 8.65624
vt -3.98959 11.6031
f 64/221/64 65/222/65 67/223/67

vt -6.30937 4.88589
vt -10.4806 4.88589
vt -7.411 2.06155
f 66/224/66 67/225/67 65/226/65

vt 10.2573 -8.41585
vt 13.2817 0.475412
vt 5.37754 0.475414
vt 3.99254 -3.59619
f 20/227/20 33/228/33 7/229/7 8/230/8 

vt 13.2817 0.343087
vt 10.2573 9.23435
vt 3.99254 4.41469
vt 5.37754 0.343085
f 33/231/33 31/232/31 9/233/9 7/234/7 

vt 9.26472 10.2056
vt 0.879365 14.4351
vt -0.217907 6.60745
vt 3.622 4.67061
f 31/235/31 29/236/29 11/237/11 9/238/9 

vt -2.67722 14.183
vt -11.0625 9.95356
vt -5.41985 4.41861
vt -1.57994 6.35543
f 29/239/29 27/240/27 13/241/13 11/242/11 

vt -11.8228 9.01491
vt -14.8472 0.123644
vt -6.94307 0.123643
vt -5.55806 4.19525
f 27/243/27 25/244/25 15/245/15 13/246/13 

vt -14.8472 0.694855
vt -11.8228 -8.19641
vt -5.55806 -3.37675
vt -6.94307 0.694856
f 25/247/25 23/248/23 17/249/17 15/250/15 

vt -11.0625 -9.24084
vt -2.67721 -13.4703
vt -1.57994 -5.64271
vt -5.41985 -3.70589
f 23/251/23 19/252/19 18/253/18 17/254/17 

v -3.02654 -1.67701 2.79409
vt -3.02654 -1.67701
vn -0.537359 -0.547192 0.641737
vt -6.54933 0.41937
f 2/2/2 68/255/68 16/256/16

f 68/255/68 2/2/2 4/4/4

vt 1.36035 2.85362
vt 2.19389 0.74316
v -0.660118 -2.51362 3.59406
vt 3.03527 0.820288
vn -0.00076599 -0.999269 0.0382184
v -2.73406 -1.65457 3.59406
vt 2.21065 2.90816
vn -0.694506 -0.717263 -0.0565277
f 68/257/68 4/258/4 69/259/69 70/260/70 

vt -2.49723 -2.43371
vt -2.98992 -0.218741
v 1.41382 -1.65457 3.59406
vt -3.82566 -0.161503
vn 0.689868 -0.712647 0.12734
vt -3.33824 -2.35276
f 4/261/4 5/262/5 71/263/71 69/264/69 

vt -3.01076 -1.44062
v 2.03457 0.41937 2.79409
vt -3.25867 0.814895
vn 0.967011 -1.43433e-009 0.254733
v 2.27287 0.41937 3.59406
vt -4.09337 0.814895
vn 0.987452 -1.16524e-009 0.157922
vt -3.84811 -1.41648
f 5/265/5 72/266/72 73/267/73 71/268/71 

vt 2.03457 0.41937
f 5/5/5 6/6/6 72/269/72

vt 3.04319 4.39272
f 72/269/72 6/6/6 10/270/10

v 1.16622 2.51575 2.79409
vt 1.16622 2.51575
vn 0.661934 0.670834 0.334403
f 72/269/72 10/270/10 74/271/74

v -0.930157 3.38409 2.79409
vt -0.930157 3.38409
vn 0.00166272 0.86313 0.504979
f 74/271/74 10/270/10 75/272/75

vt -4.9035 4.39272
f 14/273/14 75/272/75 10/270/10

v -3.02654 2.51575 2.79409
vt -3.02654 2.51575
vn -0.537359 0.547192 0.641737
f 14/273/14 76/274/76 75/272/75

f 16/256/16 76/274/76 14/273/14

v -3.89492 0.41937 2.79409
vt -3.89492 0.41937
vn -0.724859 1.35036e-009 0.688898
f 16/256/16 77/275/77 76/274/76

f 16/256/16 68/255/68 77/275/77

vt 1.23943 2.06434
vt 1.54595 -0.183978
vt 2.39765 -0.159905
v -3.59311 0.41937 3.59406
vt 2.09443 2.06434
vn -0.99566 6.90606e-010 -0.0930692
f 77/276/77 68/277/68 70/278/70 78/279/78 

vt 4.93244 0.804626
vt 4.48931 -1.39602
v -12.3921 -1.21268 19.3298
vt 22.9519 -0.92713
vn -0.682831 -0.726242 0.0794598
v -13.0681 0.41937 19.3298
vt 23.3006 0.804627
vn -0.99603 3.66587e-010 0.0890146
f 78/280/78 70/281/70 79/282/79 80/283/80 

vt 4.46468 -0.093533
vt 3.47085 -2.10636
v -10.7601 -1.8887 19.3298
vt 22.1221 -0.642124
vn 0.000380225 -0.999323 0.0367784
vt 22.9042 0.941838
f 70/284/70 69/285/69 81/286/81 79/287/79 

vt -3.28408 0.274372
vt -2.05287 2.15142
v -9.12803 -1.21268 19.3298
vt -20.974 3.11695
vn 0.68469 -0.728684 -0.0148085
vt -21.9428 1.63984
f 69/288/69 71/289/71 82/290/82 81/291/81 

vt -2.17361 -0.531597
vt -1.6898 1.66046
v -8.45201 0.41937 19.3298
vt -20.7328 1.66046
vn 0.999402 1.29394e-010 -0.0345885
vt -21.1136 -0.0645404
f 71/292/71 73/293/73 83/294/83 82/295/82 

vt -1.6898 -0.866916
v 1.41382 2.49331 3.59406
vt -2.17361 1.32514
vn 0.689868 0.712647 0.12734
v -9.12803 2.05142 19.3298
vt -21.1136 0.858084
vn 0.68469 0.728684 -0.0148085
vt -20.7328 -0.866917
f 73/296/73 84/297/84 85/298/85 83/299/83 

vt -3.25867 -0.0353331
vt -3.01076 2.22019
vt -3.84811 2.19604
vt -4.09337 -0.0353338
f 72/300/72 74/301/74 84/302/84 73/303/73 

vt -2.98992 0.54756
vt -2.49722 2.76253
v -0.660118 3.35236 3.59406
vt -3.33824 2.68158
vn -0.000765996 0.999269 0.0382182
vt -3.82566 0.490322
f 74/304/74 75/305/75 86/306/86 84/307/84 

vt 2.19389 -0.39806
vt 1.36035 -2.50852
v -2.73406 2.49331 3.59406
vt 2.21065 -2.56306
vn -0.694506 0.717263 -0.0565277
vt 3.03527 -0.475187
f 75/308/75 76/309/76 87/310/87 86/311/86 

vt 1.54595 0.966038
vt 1.23943 -1.28228
vt 2.09443 -1.28228
vt 2.39765 0.941965
f 76/312/76 77/313/77 78/314/78 87/315/87 

vt 4.48931 2.18646
vt 4.93244 -0.0141773
vt 23.3006 -0.0141782
v -12.3921 2.05142 19.3298
vt 22.9519 1.71758
vn -0.682831 0.726242 0.0794598
f 87/316/87 78/317/78 80/318/80 88/319/88 

vt 6.5525 -4.63095
vt 6.11117 -6.34146
v 1.03417 0.41937 35.6933
vt 27.713 -6.34146
vn -0.950635 9.88961e-007 0.310312
v 1.51988 1.59193 35.6933
vt 28.0301 -5.11253
vn -0.673589 0.698773 0.240818
f 88/320/88 80/321/80 89/322/89 90/323/90 

vt 6.11117 7.14173
vt 6.5525 5.43122
v 1.51988 -0.753189 35.6933
vt 28.0301 5.9128
vn -0.673588 -0.698774 0.240818
vt 27.713 7.14173
f 80/324/80 79/325/79 91/326/91 89/327/89 

vt 5.85959 18.7571
vt 6.96326 17.3778
v 2.69244 -1.23886 35.6933
vt 28.1151 18.7037
vn 0.00172947 -0.999281 0.0378856
vt 27.3222 19.6947
f 79/328/79 81/329/81 92/330/92 91/331/91 

vt -9.31764 -18.7213
vt -10.2767 -17.2378
v 3.86496 -0.753189 35.6933
vt -31.152 -16.2294
vn 0.683977 -0.708827 -0.172452
vt -30.463 -17.2952
f 81/332/81 82/333/82 93/334/93 92/335/92 

vt -9.59923 -7.07678
vt -10.0158 -5.36008
v 4.35067 0.41937 35.6933
vt -30.7926 -5.36008
vn 0.968422 9.81737e-007 -0.249317
vt -30.4933 -6.59346
f 82/336/82 83/337/83 94/338/94 93/339/93 

vt -10.0158 6.15746
vt -9.59923 7.87416
v 3.86496 1.59193 35.6933
vt -30.4933 7.39084
vn 0.683978 0.708826 -0.172452
vt -30.7926 6.15746
f 83/340/83 85/341/85 95/342/95 94/343/94 

vt -10.2767 17.62
v -10.7601 2.72744 19.3298
vt -9.31764 19.1035
vn 0.000380225 0.999323 0.0367784
v 2.69244 2.0776 35.6933
vt -30.463 17.6774
vn 0.00172945 0.999281 0.0378861
vt -31.152 16.6116
f 85/344/85 96/345/96 97/346/97 95/347/95 

vt -2.05287 -1.76756
vt -3.28408 0.10949
vt -21.9428 -1.25597
vt -20.974 -2.73309
f 84/348/84 86/349/86 96/350/96 85/351/85 

vt 3.47085 2.46433
vt 4.46468 0.4515
vt 22.9042 -0.583871
vt 22.1221 1.00009
f 86/352/86 87/353/87 88/354/88 96/355/96 

vt 6.96326 -16.9667
vt 5.85959 -18.3461
vt 27.3222 -19.2836
vt 28.1151 -18.2926
f 96/356/96 88/357/88 90/358/90 97/359/97 

vt 35.5661 4.52744
vt 35.6104 3.25905
v -1.34189 0.831102 62.7871
vt 62.793 1.27209
vn -0.635117 0.636095 0.438189
v -0.930157 1.00165 62.7871
vt 62.7774 1.71747
vn -0.000664872 0.864328 0.502929
f 97/360/97 90/361/90 98/362/98 99/363/99 

vt 35.3945 3.3221
vt 35.4399 2.05374
v -1.51244 0.41937 62.7871
vt 62.6531 2.05374
vn -0.91218 1.69312e-006 0.40979
vt 62.6372 2.49911
f 90/364/90 89/365/89 100/366/100 98/367/98 

vt 35.4399 -1.27834
vt 35.3945 -2.5467
v -1.34189 0.00759843 62.7871
vt 62.6372 -1.72375
vn -0.635115 -0.636096 0.43819
vt 62.6531 -1.27834
f 89/368/89 91/369/91 101/370/101 100/371/100 

vt 35.6104 -2.93788
vt 35.5661 -4.20627
v -0.930157 -0.162913 62.7871
vt 62.7774 -1.3963
vn -0.00066483 -0.864329 0.502927
vt 62.793 -0.950929
f 91/372/91 92/373/92 102/374/102 101/375/101 

vt -34.1859 9.28105
vt -33.9235 10.5228
v -0.518425 0.00759843 62.7871
vt -61.3111 12.4679
vn 0.583715 -0.585865 0.562174
vt -61.4033 12.0319
f 92/376/92 93/377/93 103/378/103 102/379/102 

vt -34.508 3.04623
vt -34.4251 4.31269
v -0.347874 0.41937 62.7871
vt -61.9232 4.31268
vn 0.81095 1.49611e-006 0.585115
vt -61.9524 3.86794
f 93/380/93 94/381/94 104/382/104 103/383/103 

vt -34.4251 -3.53617
vt -34.508 -2.26971
v -0.518425 0.831102 62.7871
vt -61.9524 -3.09147
vn 0.583716 0.585864 0.562174
vt -61.9232 -3.53617
f 94/384/94 95/385/95 105/386/105 104/387/104 

vt -33.9235 -10.1946
vt -34.1859 -8.95294
vt -61.4033 -11.7038
vt -61.3111 -12.1398
f 95/388/95 97/389/97 99/390/99 105/391/105 

vt -0.518425 0.00759843
vt -0.347874 0.41937
vt -0.518425 0.831102
vt -0.930157 1.00165
vt -1.34189 0.831102
vt -1.51244 0.41937
vt -1.34189 0.00759843
vt -0.930157 -0.162913
f 103/392/103 104/393/104 105/394/105 99/395/99 98/396/98 100/397/100 101/398/101 102/399/102 

vt -0.930157 6.03854
f 14/273/14 10/270/10 12/400/12

