# Blender v2.76 (sub 0) OBJ File: 'ovulaReina.blend'
# www.blender.org
mtllib ovulaReina.mtl
o Sphere.001
v -1.180611 -4.024526 4.798783
v -1.505034 -4.241299 4.798783
v -1.721807 -4.565722 4.798783
v -1.797927 -4.948406 4.798783
v -1.721807 -5.331089 4.798783
v -1.505034 -5.655512 4.798783
v -1.180611 -5.872285 4.798783
v -1.068525 -4.024526 4.528185
v -1.297927 -4.241299 4.298783
v -1.451209 -4.565722 4.145502
v -1.505034 -4.948406 4.091676
v -1.451209 -5.331089 4.145502
v -1.297927 -5.655512 4.298783
v -1.068526 -5.872285 4.528185
v -0.797927 -4.024526 4.416100
v -0.797928 -4.241299 4.091676
v -0.797928 -4.565722 3.874903
v -0.797927 -4.948406 3.798783
v -0.797928 -5.331089 3.874903
v -0.797928 -5.655512 4.091676
v -0.797927 -5.872285 4.416100
v -0.797928 -3.948406 4.798783
v -0.527330 -4.024526 4.528185
v -0.297928 -4.241299 4.298783
v -0.144646 -4.565722 4.145502
v -0.090821 -4.948406 4.091676
v -0.144646 -5.331089 4.145502
v -0.297928 -5.655512 4.298783
v -0.527330 -5.872285 4.528185
v -0.797928 -5.948406 4.798783
v -0.415244 -4.024526 4.798783
v -0.090821 -4.241299 4.798783
v 0.125952 -4.565722 4.798783
v 0.202072 -4.948406 4.798783
v 0.125952 -5.331089 4.798783
v -0.090821 -5.655512 4.798783
v -0.415244 -5.872285 4.798783
v -0.527330 -4.024526 5.069381
v -0.297928 -4.241299 5.298783
v -0.144646 -4.565722 5.452064
v -0.090821 -4.948406 5.505889
v -0.144646 -5.331089 5.452064
v -0.297928 -5.655512 5.298783
v -0.527330 -5.872285 5.069381
v -0.797928 -4.024526 5.181466
v -0.797928 -4.241299 5.505889
v -0.797927 -4.565722 5.722662
v -0.797928 -4.948406 5.798782
v -0.797927 -5.331089 5.722662
v -0.797928 -5.655512 5.505889
v -0.797928 -5.872285 5.181466
v -1.068525 -4.024526 5.069381
v -1.297927 -4.241299 5.298783
v -1.451209 -4.565722 5.452064
v -1.505034 -4.948406 5.505889
v -1.451209 -5.331089 5.452064
v -1.297927 -5.655512 5.298783
v -1.068525 -5.872285 5.069381
v -1.374193 -4.197206 4.853278
v -1.244038 -4.197206 4.429557
v -0.852389 -4.197206 4.221974
v -0.428668 -4.197206 4.352129
v -0.221085 -4.197206 4.743778
v -0.351239 -4.197206 5.167499
v -0.742888 -4.197206 5.375082
v -1.166610 -4.197206 5.244927
v -1.707699 -2.789282 4.798512
v -1.441158 -2.789282 4.155024
v -0.797671 -2.789282 3.888483
v -0.154183 -2.789282 4.155024
v 0.112358 -2.789282 4.798511
v -0.154183 -2.789282 5.441998
v -0.797670 -2.789282 5.708539
v -1.441157 -2.789282 5.441998
v -0.967694 -4.197206 5.352147
v -1.064216 -3.701942 5.441993
v -0.526418 -4.197206 5.310243
v -0.527525 -3.661662 5.450699
v -1.309353 -4.197206 5.069748
v -1.432443 -3.742286 5.061433
v -1.351257 -4.197206 4.628473
v -1.463762 -3.597388 4.522602
v -1.068859 -4.197206 4.286814
v -1.077812 -3.550071 4.122189
v -0.627584 -4.197206 4.244909
v -0.514550 -3.516745 4.114986
v -0.285924 -4.197206 4.527308
v -0.130621 -3.592928 4.522202
v -0.244020 -4.197206 4.968583
v -0.125163 -3.567677 5.077067
v -0.595531 -4.197206 5.341266
v -0.544186 -3.607861 5.466601
v -0.893977 -4.197206 5.369607
v -1.045829 -3.638986 5.460380
v -1.038501 -4.197206 5.325213
v -1.098931 -3.617888 5.441993
v -1.105186 -4.197206 5.289269
v -1.415876 -2.850494 5.441998
v -1.221720 -4.197206 5.192948
v -1.440343 -2.878397 5.406412
v -1.269574 -4.197206 5.134220
v -1.432822 -3.700819 5.077992
v -1.340377 -4.197206 5.000636
v -1.443802 -3.702959 5.050583
v -1.362114 -4.197206 4.928065
v -1.696262 -2.828879 4.809436
v -1.376407 -4.197206 4.777555
v -1.692722 -2.838896 4.781572
v -1.368718 -4.197206 4.702189
v -1.479275 -3.545996 4.540148
v -1.324324 -4.197206 4.557666
v -1.462218 -3.542204 4.497500
v -1.288380 -4.197206 4.490980
v -1.442708 -2.844715 4.180239
v -1.192059 -4.197206 4.374447
v -1.422471 -2.828409 4.153336
v -1.133331 -4.197206 4.326592
v -1.091593 -3.521216 4.123435
v -0.999747 -4.197206 4.255790
v -1.066028 -3.518069 4.112359
v -0.927176 -4.197206 4.234053
v -0.810261 -2.823475 3.898987
v -0.776665 -4.197206 4.219760
v -0.777749 -2.840468 3.904421
v -0.701300 -4.197206 4.227449
v -0.526665 -3.485618 4.105294
v -0.556777 -4.197206 4.271842
v -0.493796 -3.474849 4.117292
v -0.490091 -4.197206 4.307787
v -0.177377 -2.836101 4.152447
v -0.373557 -4.197206 4.404108
v -0.152485 -2.847208 4.181490
v -0.325703 -4.197206 4.462836
v -0.131763 -3.553967 4.504401
v -0.233163 -4.197206 4.668991
v 0.103369 -2.819011 4.788290
v -0.254901 -4.197206 4.596420
v -0.119002 -3.554500 4.535415
v -0.218871 -4.197206 4.819501
v 0.102120 -2.822834 4.810518
v -0.226560 -4.197206 4.894866
v -0.117096 -3.541239 5.067606
v -0.270953 -4.197206 5.039390
v -0.126688 -3.526773 5.096244
v -0.306898 -4.197206 5.106076
v -0.153200 -2.815668 5.429627
v -0.403219 -4.197206 5.222609
v -0.173916 -2.835391 5.442458
v -0.461947 -4.197206 5.270463
v -0.503355 -3.605185 5.450136
v -0.668101 -4.197206 5.363003
v -0.790223 -2.813332 5.701431
v -0.818612 -4.197206 5.377296
v -0.803120 -2.807940 5.703090
v -1.300640 -4.197205 4.846293
v -1.187090 -4.197205 4.476627
v -0.845404 -4.197205 4.295527
v -0.475738 -4.197205 4.409077
v -0.294637 -4.197205 4.750762
v -0.408187 -4.197205 5.120429
v -0.749873 -4.197205 5.301529
v -1.119539 -4.197205 5.187979
v -0.945999 -4.197205 5.281520
v -0.561019 -4.197205 5.244962
v -1.244072 -4.197205 5.035148
v -1.280631 -4.197205 4.650167
v -1.034259 -4.197205 4.352094
v -0.649278 -4.197205 4.315536
v -0.351205 -4.197205 4.561908
v -0.314647 -4.197205 4.946889
v -0.621314 -4.197205 5.272027
v -0.881687 -4.197205 5.296753
v -1.007773 -4.197205 5.258023
v -1.065952 -4.197205 5.226664
v -1.167619 -4.197205 5.142631
v -1.209368 -4.197205 5.091395
v -1.271138 -4.197205 4.974853
v -1.290102 -4.197205 4.911540
v -1.302572 -4.197205 4.780230
v -1.295864 -4.197205 4.714479
v -1.257134 -4.197205 4.588393
v -1.225775 -4.197205 4.530215
v -1.141742 -4.197205 4.428548
v -1.090506 -4.197205 4.386799
v -0.973963 -4.197205 4.325028
v -0.910650 -4.197205 4.306064
v -0.779341 -4.197205 4.293595
v -0.713590 -4.197205 4.300303
v -0.587504 -4.197205 4.339033
v -0.529326 -4.197205 4.370392
v -0.427658 -4.197205 4.454425
v -0.385909 -4.197205 4.505661
v -0.305175 -4.197205 4.685516
v -0.324139 -4.197205 4.622203
v -0.292706 -4.197205 4.816826
v -0.299414 -4.197205 4.882576
v -0.338144 -4.197205 5.008663
v -0.369503 -4.197205 5.066841
v -0.453536 -4.197205 5.168508
v -0.504772 -4.197205 5.210257
v -0.684627 -4.197205 5.290992
v -0.815937 -4.197205 5.303461
vt 0.870446 0.383957
vt 0.872391 0.442774
vt 0.789561 0.428107
vt 0.823694 0.371689
vt 0.873768 0.496257
vt 0.875000 0.548007
vt 0.763801 0.553372
vt 0.768757 0.489686
vt 0.876232 0.599756
vt 0.877610 0.653239
vt 0.799710 0.672448
vt 0.774794 0.615340
vt 0.879555 0.712056
vt 0.834361 0.724325
vt 0.200297 0.423572
vt 0.225210 0.480681
vt 0.123771 0.496260
vt 0.122397 0.442777
vt 0.236200 0.542650
vt 0.231241 0.606335
vt 0.126230 0.599759
vt 0.125001 0.548010
vt 0.210434 0.667912
vt 0.176300 0.724328
vt 0.129549 0.712060
vt 0.127606 0.653243
vt 0.165649 0.371694
vt 0.120455 0.383960
vt 0.024790 0.615339
vt 0.013800 0.553369
vt 0.084354 0.724328
vt 0.049704 0.672449
vt 0.039567 0.428106
vt 0.073703 0.371689
vt 0.018760 0.489684
vt 0.415646 0.371689
vt 0.450296 0.423568
vt 0.372394 0.442774
vt 0.370451 0.383957
vt 0.475210 0.480677
vt 0.486200 0.542647
vt 0.375000 0.548007
vt 0.373770 0.496258
vt 0.481241 0.606333
vt 0.460433 0.667911
vt 0.377604 0.653240
vt 0.376229 0.599757
vt 0.426297 0.724328
vt 0.379546 0.712057
vt 0.299703 0.672445
vt 0.274790 0.615336
vt 0.268760 0.489682
vt 0.289566 0.428105
vt 0.263801 0.553367
vt 0.334351 0.724323
vt 0.323700 0.371689
vt 0.700292 0.423566
vt 0.725207 0.480674
vt 0.623769 0.496258
vt 0.622392 0.442774
vt 0.736200 0.542643
vt 0.731243 0.606328
vt 0.626232 0.599757
vt 0.625000 0.548007
vt 0.710439 0.667907
vt 0.676306 0.724325
vt 0.629554 0.712057
vt 0.627609 0.653240
vt 0.665641 0.371689
vt 0.620447 0.383957
vt 0.584360 0.724325
vt 0.549709 0.672448
vt 0.539562 0.428107
vt 0.573695 0.371689
vt 0.513801 0.553371
vt 0.518758 0.489686
vt 0.524793 0.615340
vt 0.702698 0.805691
vt 0.680428 0.751926
vt 0.724969 0.751926
vt 0.756464 0.783421
vt 0.589837 0.859457
vt 0.545296 0.859457
vt 0.567566 0.805691
vt 0.621332 0.827962
vt 0.724969 0.859457
vt 0.680428 0.859457
vt 0.648933 0.827962
vt 0.545296 0.751926
vt 0.589837 0.751926
vt 0.513801 0.783421
vt 0.648933 0.783421
vt 0.513801 0.827962
vt 0.621332 0.783421
vt 0.915640 0.371689
vt 0.950291 0.423565
vt 0.975207 0.480673
vt 0.986200 0.542642
vt 0.981243 0.606327
vt 0.960440 0.667906
vt 0.926307 0.724325
vt 0.756464 0.827962
vt 0.380165 0.128813
vt 0.419765 0.333212
vt 0.425198 0.344088
vt 0.391184 0.128019
vt 0.197576 0.077330
vt 0.106188 0.254068
vt 0.102220 0.268237
vt 0.206551 0.083464
vt 0.529938 0.080801
vt 0.520137 0.086792
vt 0.645384 0.276499
vt 0.643163 0.266136
vt 0.446374 0.117535
vt 0.530295 0.314663
vt 0.537844 0.323786
vt 0.457507 0.114311
vt 0.274540 0.115753
vt 0.264199 0.112213
vt 0.202570 0.318372
vt 0.208855 0.310079
vt 0.215956 0.089219
vt 0.112624 0.258425
vt 0.150382 0.035872
vt 0.020282 0.188007
vt 0.013800 0.200292
vt 0.157378 0.043642
vt 0.468551 0.110519
vt 0.537784 0.313010
vt 0.172685 0.057969
vt 0.134911 0.130501
vt 0.143205 0.125526
vt 0.180716 0.064628
vt 0.589683 0.029659
vt 0.672779 0.076370
vt 0.668178 0.067961
vt 0.596958 0.020449
vt 0.244447 0.103976
vt 0.234852 0.099372
vt 0.213637 0.162854
vt 0.213130 0.168936
vt 0.305585 0.123724
vt 0.295194 0.121400
vt 0.284200 0.208957
vt 0.285947 0.217561
vt 0.347914 0.128961
vt 0.365045 0.228596
vt 0.366985 0.224365
vt 0.358601 0.129243
vt 0.413394 0.124955
vt 0.454266 0.228096
vt 0.455472 0.222953
vt 0.424390 0.122830
vt 0.499993 0.097310
vt 0.489700 0.102009
vt 0.536723 0.183412
vt 0.541587 0.187676
vt 0.557192 0.061073
vt 0.548356 0.067912
vt 0.614415 0.139068
vt 0.620508 0.142236
vt 0.137800 0.019182
vt 0.082874 0.073225
vt 0.078869 0.080402
vt 0.143907 0.027802
vt 0.164880 0.051028
vt 0.023813 0.194642
vt 0.139483 0.137997
vt 0.189002 0.071066
vt 0.225374 0.094455
vt 0.209012 0.167409
vt 0.254206 0.108267
vt 0.203577 0.302668
vt 0.284853 0.118744
vt 0.279376 0.215641
vt 0.316044 0.125690
vt 0.309401 0.326677
vt 0.326615 0.127196
vt 0.312113 0.339037
vt 0.316324 0.330318
vt 0.337258 0.128334
vt 0.369194 0.229051
vt 0.369345 0.129191
vt 0.427503 0.334804
vt 0.402343 0.126728
vt 0.459933 0.228525
vt 0.435372 0.120354
vt 0.479230 0.106399
vt 0.536873 0.190009
vt 0.510133 0.092266
vt 0.635125 0.267843
vt 0.539276 0.074478
vt 0.615467 0.143398
vt 0.565778 0.053920
vt 0.727741 0.196410
vt 0.574070 0.046328
vt 0.739347 0.202123
vt 0.733866 0.191698
vt 0.582109 0.038247
vt 0.485048 0.091302
vt 0.474916 0.095457
vt 0.258409 0.098103
vt 0.249014 0.094011
vt 0.400748 0.115354
vt 0.390085 0.116662
vt 0.411372 0.113626
vt 0.532682 0.064967
vt 0.523625 0.070974
vt 0.514268 0.076673
vt 0.504719 0.081940
vt 0.239781 0.089559
vt 0.230681 0.084746
vt 0.212726 0.073887
vt 0.203888 0.068181
vt 0.348354 0.117999
vt 0.338104 0.117449
vt 0.464543 0.099270
vt 0.165035 0.036276
vt 0.158343 0.029047
vt 0.566203 0.038170
vt 0.558290 0.045304
vt 0.541482 0.058682
vt 0.277869 0.105158
vt 0.268007 0.101817
vt 0.573626 0.030485
vt 0.421971 0.111514
vt 0.550028 0.052129
vt 0.172163 0.043220
vt 0.297777 0.110729
vt 0.287796 0.108115
vt 0.221681 0.079545
vt 0.358676 0.118204
vt 0.494979 0.086802
vt 0.179638 0.049840
vt 0.152222 0.021596
vt 0.443137 0.106111
vt 0.432548 0.109020
vt 0.369054 0.118065
vt 0.379503 0.117560
vt 0.195480 0.062300
vt 0.187412 0.056192
vt 0.307804 0.113012
vt 0.453837 0.102744
vt 0.580596 0.022393
vt 0.327939 0.116510
vt 0.317865 0.114952
vt 0.146886 0.013800
vt 0.586958 0.013808
vn -0.541400 -0.810300 -0.224300
vn -0.908700 -0.180700 -0.376400
vn -0.786200 0.525300 -0.325600
vn -0.786200 -0.525300 -0.325600
vn -0.908700 0.180700 -0.376400
vn -0.541400 0.810300 -0.224300
vn -0.325600 -0.525300 -0.786200
vn -0.376400 0.180700 -0.908700
vn -0.224300 0.810300 -0.541400
vn -0.224300 -0.810300 -0.541400
vn -0.376400 -0.180700 -0.908700
vn -0.325600 0.525300 -0.786200
vn 0.376400 0.180700 -0.908700
vn 0.224300 0.810300 -0.541400
vn 0.224300 -0.810300 -0.541400
vn 0.376400 -0.180700 -0.908700
vn 0.325600 0.525300 -0.786200
vn 0.325600 -0.525300 -0.786200
vn 0.541400 -0.810300 -0.224300
vn 0.908700 -0.180700 -0.376400
vn 0.786200 0.525300 -0.325600
vn 0.786200 -0.525300 -0.325600
vn 0.908700 0.180700 -0.376400
vn 0.541400 0.810300 -0.224300
vn 0.786200 0.525300 0.325600
vn 0.786200 -0.525300 0.325600
vn 0.908700 0.180700 0.376400
vn 0.541400 0.810300 0.224300
vn 0.541400 -0.810300 0.224300
vn 0.908700 -0.180700 0.376400
vn 0.325600 -0.525300 0.786200
vn 0.376400 0.180700 0.908700
vn 0.224300 0.810300 0.541400
vn 0.224300 -0.810300 0.541400
vn 0.376400 -0.180700 0.908700
vn 0.325600 0.525300 0.786200
vn -0.224300 0.810300 0.541400
vn -0.224300 -0.810300 0.541400
vn -0.376400 -0.180700 0.908700
vn -0.325600 0.525300 0.786200
vn -0.325600 -0.525300 0.786200
vn -0.376400 0.180700 0.908700
vn 0.137900 0.980800 0.138000
vn 0.137900 -0.980800 0.137900
vn -0.137900 0.980800 -0.138000
vn -0.137900 -0.980800 -0.137900
vn -0.137900 0.980800 0.138000
vn -0.137900 -0.980800 0.137900
vn 0.137900 -0.980800 -0.137900
vn -0.541400 -0.810300 0.224300
vn -0.908700 -0.180700 0.376400
vn -0.786200 0.525300 0.325600
vn -0.786200 -0.525300 0.325600
vn -0.908700 0.180700 0.376400
vn -0.541400 0.810300 0.224300
vn 0.137900 0.980800 -0.138000
vn -0.162000 -0.221100 -0.961700
vn -0.563100 -0.220800 0.796300
vn 0.973400 -0.229000 0.001500
vn 0.563600 -0.220800 -0.796000
vn -0.973400 -0.228900 -0.011500
vn -0.705900 -0.228600 0.670400
vn 0.159700 -0.221400 0.962000
vn 0.700400 -0.228700 -0.676100
vn -0.222700 -0.215500 0.950800
vn 0.515100 -0.216100 0.829400
vn -0.902100 -0.231300 0.364400
vn -0.889000 -0.229800 -0.396200
vn -0.515000 -0.217700 -0.829100
vn 0.221700 -0.217900 -0.950500
vn 0.903800 -0.230200 -0.360700
vn 0.893000 -0.230000 0.386900
vn 0.352000 -0.230100 0.907300
vn -0.185000 -0.217900 0.958300
vn -0.408300 -0.229500 0.883500
vn -0.507400 -0.214500 0.834600
vn -0.808900 -0.217500 0.546300
vn -0.830500 -0.215100 0.513900
vn -0.948800 -0.214300 0.232100
vn -0.961700 -0.221200 0.161700
vn -0.958700 -0.218000 -0.182600
vn -0.950800 -0.216900 -0.221400
vn -0.831600 -0.215600 -0.511800
vn -0.796400 -0.220800 -0.563100
vn -0.683700 -0.229000 -0.692900
vn -0.548800 -0.218100 -0.807000
vn -0.364600 -0.230300 -0.902300
vn -0.223600 -0.216000 -0.950400
vn 0.017200 -0.228800 -0.973300
vn 0.181700 -0.218100 -0.958900
vn 0.389900 -0.229800 -0.891700
vn 0.514500 -0.216200 -0.829800
vn 0.807200 -0.217900 -0.548600
vn 0.829100 -0.217100 -0.515200
vn 0.961800 -0.221200 -0.161000
vn 0.950100 -0.215600 -0.225400
vn 0.958600 -0.218000 0.183200
vn 0.950400 -0.217500 0.222500
vn 0.830700 -0.215800 0.513200
vn 0.793700 -0.221300 0.566600
vn 0.684000 -0.228900 0.692700
vn 0.547600 -0.217900 0.807900
vn 0.228500 -0.215000 0.949500
vn 0.013900 -0.229200 0.973300
vn -0.000000 -1.000000 0.000000
usemtl Material.002
s off
f 7/1/1 6/2/1 13/3/1 14/4/1
f 5/5/2 4/6/2 11/7/2 12/8/2
f 3/9/3 2/10/3 9/11/3 10/12/3
f 6/2/4 5/5/4 12/8/4 13/3/4
f 4/6/5 3/9/5 10/12/5 11/7/5
f 2/10/6 1/13/6 8/14/6 9/11/6
f 13/15/7 12/16/7 19/17/7 20/18/7
f 11/19/8 10/20/8 17/21/8 18/22/8
f 9/23/9 8/24/9 15/25/9 16/26/9
f 14/27/10 13/15/10 20/18/10 21/28/10
f 12/16/11 11/19/11 18/22/11 19/17/11
f 10/20/12 9/23/12 16/26/12 17/21/12
f 18/22/13 17/21/13 25/29/13 26/30/13
f 16/26/14 15/25/14 23/31/14 24/32/14
f 21/28/15 20/18/15 28/33/15 29/34/15
f 19/17/16 18/22/16 26/30/16 27/35/16
f 17/21/17 16/26/17 24/32/17 25/29/17
f 20/18/18 19/17/18 27/35/18 28/33/18
f 29/36/19 28/37/19 36/38/19 37/39/19
f 27/40/20 26/41/20 34/42/20 35/43/20
f 25/44/21 24/45/21 32/46/21 33/47/21
f 28/37/22 27/40/22 35/43/22 36/38/22
f 26/41/23 25/44/23 33/47/23 34/42/23
f 24/45/24 23/48/24 31/49/24 32/46/24
f 33/47/25 32/46/25 39/50/25 40/51/25
f 36/38/26 35/43/26 42/52/26 43/53/26
f 34/42/27 33/47/27 40/51/27 41/54/27
f 32/46/28 31/49/28 38/55/28 39/50/28
f 37/39/29 36/38/29 43/53/29 44/56/29
f 35/43/30 34/42/30 41/54/30 42/52/30
f 43/57/31 42/58/31 49/59/31 50/60/31
f 41/61/32 40/62/32 47/63/32 48/64/32
f 39/65/33 38/66/33 45/67/33 46/68/33
f 44/69/34 43/57/34 50/60/34 51/70/34
f 42/58/35 41/61/35 48/64/35 49/59/35
f 40/62/36 39/65/36 46/68/36 47/63/36
f 46/68/37 45/67/37 52/71/37 53/72/37
f 51/70/38 50/60/38 57/73/38 58/74/38
f 49/59/39 48/64/39 55/75/39 56/76/39
f 47/63/40 46/68/40 53/72/40 54/77/40
f 50/60/41 49/59/41 56/76/41 57/73/41
f 48/64/42 47/63/42 54/77/42 55/75/42
f 22/78/43 45/79/43 38/80/43 31/81/43
f 44/82/44 51/83/44 30/84/44 37/85/44
f 22/78/45 15/86/45 8/87/45 1/88/45
f 14/89/46 21/90/46 30/84/46 7/91/46
f 22/78/47 1/88/47 52/92/47 45/79/47
f 58/93/48 7/91/48 30/84/48 51/83/48
f 29/94/49 37/85/49 30/84/49 21/90/49
f 58/95/50 57/96/50 6/2/50 7/1/50
f 56/97/51 55/98/51 4/6/51 5/5/51
f 54/99/52 53/100/52 2/10/52 3/9/52
f 57/96/53 56/97/53 5/5/53 6/2/53
f 55/98/54 54/99/54 3/9/54 4/6/54
f 53/100/55 52/101/55 1/13/55 2/10/55
f 22/78/56 31/81/56 23/102/56 15/86/56
f 121/103/57 122/104/57 69/105/57 61/106/57
f 97/107/58 98/108/58 74/109/58 66/110/58
f 139/111/59 63/112/59 71/113/59 140/114/59
f 129/115/60 130/116/60 70/117/60 62/118/60
f 107/119/61 59/120/61 67/121/61 108/122/61
f 99/123/62 66/110/62 74/109/62 100/124/62
f 151/125/63 152/126/63 73/127/63 65/128/63
f 131/129/64 62/118/64 70/117/64 132/130/64
f 93/131/65 94/132/65 76/133/65 75/134/65
f 149/135/66 150/136/66 78/137/66 77/138/66
f 103/139/67 79/140/67 80/141/67 104/142/67
f 111/143/68 81/144/68 82/145/68 112/146/68
f 117/147/69 118/148/69 84/149/69 83/150/69
f 125/151/70 126/152/70 86/153/70 85/154/70
f 137/155/71 87/156/71 88/157/71 138/158/71
f 143/159/72 89/160/72 90/161/72 144/162/72
f 77/163/73 78/164/73 92/165/73 91/166/73
f 153/167/74 154/168/74 94/132/74 93/131/74
f 75/134/75 76/133/75 96/169/75 95/170/75
f 95/170/76 96/169/76 98/108/76 97/107/76
f 101/171/77 99/123/77 100/124/77 102/172/77
f 79/140/78 101/171/78 102/172/78 80/141/78
f 105/173/79 103/139/79 104/142/79 106/174/79
f 59/120/80 105/173/80 106/174/80 67/121/80
f 109/175/81 107/119/81 108/122/81 110/176/81
f 81/144/82 109/175/82 110/176/82 82/145/82
f 113/177/83 111/143/83 112/146/83 114/178/83
f 60/179/84 113/177/84 114/178/84 68/180/84
f 60/179/85 68/180/85 116/181/85 115/182/85
f 115/182/86 116/181/86 118/148/86 117/147/86
f 83/150/87 84/149/87 120/183/87 119/184/87
f 119/184/88 120/183/88 122/104/88 121/103/88
f 61/106/89 69/105/89 124/185/89 123/186/89
f 123/186/90 124/185/90 126/152/90 125/151/90
f 85/154/91 86/153/91 128/187/91 127/188/91
f 127/188/92 128/187/92 130/116/92 129/115/92
f 133/189/93 131/129/93 132/130/93 134/190/93
f 87/156/94 133/189/94 134/190/94 88/157/94
f 63/112/95 135/191/95 136/192/95 71/113/95
f 135/191/96 137/155/96 138/158/96 136/192/96
f 141/193/97 139/111/97 140/114/97 142/194/97
f 89/160/98 141/193/98 142/194/98 90/161/98
f 145/195/99 143/159/99 144/162/99 146/196/99
f 64/197/100 145/195/100 146/196/100 72/198/100
f 64/197/101 72/198/101 148/199/101 147/200/101
f 147/200/102 148/199/102 150/136/102 149/135/102
f 91/166/103 92/165/103 152/126/103 151/125/103
f 65/128/104 73/127/104 154/168/104 153/167/104
f 133/189/105 87/156/105 169/201/105 192/202/105
f 103/139/105 105/173/105 178/203/105 177/204/105
f 123/186/105 187/205/105 157/206/105 61/106/105
f 125/151/105 188/207/105 187/205/105 123/186/105
f 139/111/105 141/193/105 196/208/105 195/209/105
f 135/191/105 63/112/105 159/210/105 193/211/105
f 101/171/105 79/140/105 165/212/105 176/213/105
f 66/110/105 162/214/105 174/215/105 97/107/105
f 117/147/105 184/216/105 183/217/105 115/182/105
f 131/129/105 133/189/105 192/202/105 191/218/105
f 65/128/105 161/219/105 201/220/105 151/125/105
f 145/195/105 64/197/105 160/221/105 198/222/105
f 141/193/105 89/160/105 170/223/105 196/208/105
f 59/120/105 107/119/105 179/224/105 155/225/105
f 147/200/105 199/226/105 160/221/105 64/197/105
f 85/154/105 168/227/105 188/207/105 125/151/105
f 89/160/105 143/159/105 197/228/105 170/223/105
f 153/167/105 202/229/105 161/219/105 65/128/105
f 109/175/105 81/144/105 166/230/105 180/231/105
f 66/110/105 99/123/105 175/232/105 162/214/105
f 83/150/105 167/233/105 184/216/105 117/147/105
f 137/155/105 135/191/105 193/211/105 194/234/105
f 93/131/105 172/235/105 202/229/105 153/167/105
f 105/173/105 59/120/105 155/225/105 178/203/105
f 151/125/105 201/220/105 171/236/105 91/166/105
f 107/119/105 109/175/105 180/231/105 179/224/105
f 129/115/105 190/237/105 189/238/105 127/188/105
f 143/159/105 145/195/105 198/222/105 197/228/105
f 119/184/105 185/239/105 167/233/105 83/150/105
f 99/123/105 101/171/105 176/213/105 175/232/105
f 121/103/105 186/240/105 185/239/105 119/184/105
f 87/156/105 137/155/105 194/234/105 169/201/105
f 95/170/105 173/241/105 163/242/105 75/134/105
f 75/134/105 163/242/105 172/235/105 93/131/105
f 81/144/105 111/143/105 181/243/105 166/230/105
f 62/118/105 158/244/105 190/237/105 129/115/105
f 149/135/105 200/245/105 199/226/105 147/200/105
f 127/188/105 189/238/105 168/227/105 85/154/105
f 79/140/105 103/139/105 177/204/105 165/212/105
f 61/106/105 157/206/105 186/240/105 121/103/105
f 63/112/105 139/111/105 195/209/105 159/210/105
f 113/177/105 60/179/105 156/246/105 182/247/105
f 91/166/105 171/236/105 164/248/105 77/163/105
f 97/107/105 174/215/105 173/241/105 95/170/105
f 111/143/105 113/177/105 182/247/105 181/243/105
f 62/118/105 131/129/105 191/218/105 158/244/105
f 77/138/105 164/249/105 200/245/105 149/135/105
f 115/182/105 183/217/105 156/246/105 60/179/105
