# Blender v2.76 (sub 0) OBJ File: 'pastilla.blend'
# www.blender.org
mtllib pastilla.mtl
o Circle
v 0.000000 0.000000 -1.000000
v -0.707107 0.000000 -0.707107
v -1.000000 0.000000 0.000000
v -0.707107 0.000000 0.707107
v 0.000000 0.000000 1.000000
v 0.707107 0.000000 0.707107
v 1.000000 0.000000 -0.000000
v 0.707107 0.000000 -0.707107
v 0.000000 -0.307839 -1.000000
v -0.707107 -0.307839 -0.707107
v -1.000000 -0.307839 0.000000
v -0.707107 -0.307839 0.707107
v 0.000000 -0.307839 1.000000
v 0.707107 -0.307839 0.707107
v 1.000000 -0.307839 -0.000000
v 0.707107 -0.307839 -0.707107
v 0.000000 0.121815 -0.340171
v -0.240537 0.121815 -0.240537
v -0.340171 0.121815 0.000000
v -0.240537 0.121815 0.240537
v 0.000000 0.121815 0.340171
v 0.240537 0.121815 0.240537
v 0.340171 0.121815 -0.000000
v 0.240537 0.121815 -0.240537
v 0.000000 -0.429654 -0.340777
v -0.240966 -0.429654 -0.240966
v -0.340777 -0.429654 0.000000
v -0.240966 -0.429654 0.240966
v 0.000000 -0.429654 0.340777
v 0.240966 -0.429654 0.240966
v 0.340777 -0.429654 -0.000000
v 0.240966 -0.429654 -0.240966
v 0.473822 0.083862 -0.473822
v 0.670086 0.083862 -0.000000
v 0.473822 0.083862 0.473822
v 0.000000 0.083862 0.670086
v -0.473822 0.083862 0.473822
v -0.670086 0.083862 0.000000
v -0.473822 0.083862 -0.473822
v 0.000000 0.083862 -0.670086
v 0.474036 -0.391701 -0.474036
v 0.000000 -0.391701 -0.670389
v 0.474036 -0.391701 0.474036
v 0.670389 -0.391701 -0.000000
v -0.474036 -0.391701 0.474036
v 0.000000 -0.391701 0.670389
v -0.474036 -0.391701 -0.474036
v -0.670389 -0.391701 0.000000
v 0.000000 0.121815 -0.000011
v 0.000000 -0.429654 -0.000013
v 1.000000 -0.031230 -0.000000
v 0.707107 -0.031230 -0.707107
v 0.000000 -0.031230 1.000000
v 0.707107 -0.031230 0.707107
v -1.000000 -0.031230 0.000000
v -0.707107 -0.031230 0.707107
v 0.000000 -0.031230 -1.000000
v -0.707107 -0.031230 -0.707107
v 1.000000 -0.274378 -0.000000
v 0.000000 -0.274378 1.000000
v -1.000000 -0.274378 0.000000
v 0.000000 -0.274378 -1.000000
v 0.707107 -0.274378 -0.707107
v 0.707107 -0.274378 0.707107
v -0.707107 -0.274378 0.707107
v -0.707107 -0.274378 -0.707107
v -0.689699 -0.314103 -0.689699
v -0.689699 -0.314103 0.689699
v 0.689699 -0.314103 0.689698
v 0.689699 -0.314103 -0.689698
v -0.975381 -0.314103 0.000000
v 0.000000 -0.314103 0.975381
v 0.975381 -0.314103 -0.000000
v 0.000000 -0.314103 -0.975381
v 0.982285 0.004503 -0.000000
v 0.000000 0.004503 0.982285
v -0.982285 0.004503 0.000000
v 0.000000 0.004503 -0.982285
v 0.694581 0.004503 -0.694580
v 0.694581 0.004503 0.694580
v -0.694580 0.004503 0.694580
v -0.694580 0.004503 -0.694580
vt 0.846571 0.432458
vt 0.985204 0.432459
vt 0.985204 0.438519
vt 0.846571 0.438519
vt 0.014796 0.432459
vt 0.153418 0.432458
vt 0.153419 0.438519
vt 0.014796 0.438520
vt 0.292044 0.432458
vt 0.430672 0.432458
vt 0.430672 0.438518
vt 0.292044 0.438518
vt 0.569302 0.432458
vt 0.707937 0.432458
vt 0.707937 0.438519
vt 0.569302 0.438519
vt 0.403408 0.254058
vt 0.403409 0.113904
vt 0.409536 0.113904
vt 0.409536 0.254058
vt 0.295685 0.230474
vt 0.230095 0.295843
vt 0.207220 0.240566
vt 0.240423 0.207562
vt 0.230470 0.072278
vt 0.295842 0.137871
vt 0.240563 0.160746
vt 0.207558 0.127542
vt 0.072276 0.137497
vt 0.137865 0.072124
vt 0.160742 0.127402
vt 0.127539 0.160408
vt 0.137494 0.295688
vt 0.072123 0.230100
vt 0.127400 0.207224
vt 0.160405 0.240426
vt 0.624855 0.295886
vt 0.532214 0.295732
vt 0.555103 0.240521
vt 0.602000 0.240660
vt 0.466816 0.230116
vt 0.466969 0.137476
vt 0.522180 0.160364
vt 0.522040 0.207261
vt 0.532583 0.072078
vt 0.625223 0.072230
vt 0.602335 0.127441
vt 0.555439 0.127302
vt 0.690623 0.137844
vt 0.690472 0.230486
vt 0.635260 0.207597
vt 0.635399 0.160700
vt 0.017911 0.252782
vt 0.017903 0.115202
vt 0.115182 0.017911
vt 0.252767 0.017903
vt 0.350057 0.115191
vt 0.350056 0.252771
vt 0.252774 0.350054
vt 0.115199 0.350059
vt 0.743589 0.252270
vt 0.647009 0.348850
vt 0.647007 0.019114
vt 0.743586 0.115689
vt 0.413855 0.115691
vt 0.510429 0.019116
vt 0.510428 0.348847
vt 0.413853 0.252269
vt 0.183980 0.183986
vt 0.578720 0.183983
vt 0.430671 0.382760
vt 0.569302 0.382759
vt 0.569302 0.388416
vt 0.430671 0.388417
vt 0.153418 0.382763
vt 0.292043 0.382762
vt 0.292043 0.388418
vt 0.153418 0.388419
vt 0.353164 0.254058
vt 0.353165 0.113903
vt 0.358884 0.113903
vt 0.358883 0.254058
vt 0.707937 0.382759
vt 0.846571 0.382759
vt 0.846571 0.388416
vt 0.707937 0.388416
vt 0.014796 0.382764
vt 0.014796 0.388420
vt 0.985204 0.382759
vt 0.985204 0.388416
vt 0.648799 0.353168
vt 0.508640 0.353166
vt 0.747907 0.254058
vt 0.648795 0.014796
vt 0.747904 0.113900
vt 0.508640 0.014799
vt 0.254061 0.353161
vt 0.254053 0.014796
vt 0.014796 0.113916
vt 0.113895 0.014804
vt 0.113913 0.353166
vt 0.014805 0.254069
vn 0.923900 0.000000 -0.382700
vn 0.382700 0.000000 0.923900
vn -0.923900 0.000000 0.382700
vn -0.382700 0.000000 -0.923900
vn 0.382700 0.000000 -0.923900
vn 0.923900 0.000000 0.382700
vn -0.382700 0.000000 0.923900
vn -0.923900 0.000000 -0.382700
vn 0.114200 0.992300 -0.047300
vn 0.047300 0.992300 0.114200
vn -0.114200 0.992300 0.047300
vn -0.047300 0.992300 -0.114200
vn 0.047300 0.992300 -0.114200
vn 0.114200 0.992300 0.047300
vn -0.047300 0.992300 0.114200
vn -0.114200 0.992300 -0.047300
vn 0.047300 -0.992300 -0.114300
vn 0.114300 -0.992300 0.047300
vn -0.047300 -0.992300 0.114300
vn -0.114300 -0.992300 -0.047300
vn 0.114300 -0.992300 -0.047300
vn 0.047300 -0.992300 0.114300
vn -0.114300 -0.992300 0.047300
vn -0.047300 -0.992300 -0.114300
vn -0.245100 0.964200 -0.101500
vn -0.101500 0.964200 0.245100
vn 0.245100 0.964200 0.101500
vn 0.101500 0.964200 -0.245100
vn -0.101500 0.964200 -0.245100
vn -0.245100 0.964200 0.101500
vn 0.101500 0.964200 0.245100
vn 0.245100 0.964200 -0.101500
vn -0.101600 -0.964100 -0.245300
vn -0.245300 -0.964100 0.101600
vn 0.101600 -0.964100 0.245300
vn 0.245300 -0.964100 -0.101600
vn -0.245300 -0.964100 -0.101600
vn -0.101600 -0.964100 0.245300
vn 0.245300 -0.964100 0.101600
vn 0.101600 -0.964100 -0.245300
vn 0.000000 1.000000 -0.000000
vn 0.000000 -1.000000 -0.000000
usemtl Material.001
s off
f 63/1/1 59/2/1 15/3/1 16/4/1
f 64/5/2 60/6/2 13/7/2 14/8/2
f 65/9/3 61/10/3 11/11/3 12/12/3
f 66/13/4 62/14/4 9/15/4 10/16/4
f 62/14/5 63/1/5 16/4/5 9/15/5
f 59/17/6 64/18/6 14/19/6 15/20/6
f 60/6/7 65/9/7 12/12/7 13/7/7
f 61/10/8 66/13/8 10/16/8 11/11/8
f 34/21/9 33/22/9 24/23/9 23/24/9
f 36/25/10 35/26/10 22/27/10 21/28/10
f 38/29/11 37/30/11 20/31/11 19/32/11
f 40/33/12 39/34/12 18/35/12 17/36/12
f 33/22/13 40/33/13 17/36/13 24/23/13
f 35/26/14 34/21/14 23/24/14 22/27/14
f 37/30/15 36/25/15 21/28/15 20/31/15
f 39/34/16 38/29/16 19/32/16 18/35/16
f 42/37/17 41/38/17 32/39/17 25/40/17
f 44/41/18 43/42/18 30/43/18 31/44/18
f 46/45/19 45/46/19 28/47/19 29/48/19
f 48/49/20 47/50/20 26/51/20 27/52/20
f 41/38/21 44/41/21 31/44/21 32/39/21
f 43/42/22 46/45/22 29/48/22 30/43/22
f 45/46/23 48/49/23 27/52/23 28/47/23
f 47/50/24 42/37/24 25/40/24 26/51/24
f 82/53/25 77/54/25 38/29/25 39/34/25
f 81/55/26 76/56/26 36/25/26 37/30/26
f 80/57/27 75/58/27 34/21/27 35/26/27
f 79/59/28 78/60/28 40/33/28 33/22/28
f 78/60/29 82/53/29 39/34/29 40/33/29
f 77/54/30 81/55/30 37/30/30 38/29/30
f 76/56/31 80/57/31 35/26/31 36/25/31
f 75/58/32 79/59/32 33/22/32 34/21/32
f 67/61/33 74/62/33 42/37/33 47/50/33
f 68/63/34 71/64/34 48/49/34 45/46/34
f 69/65/35 72/66/35 46/45/35 43/42/35
f 70/67/36 73/68/36 44/41/36 41/38/36
f 71/64/37 67/61/37 47/50/37 48/49/37
f 72/66/38 68/63/38 45/46/38 46/45/38
f 73/68/39 69/65/39 43/42/39 44/41/39
f 74/62/40 70/67/40 41/38/40 42/37/40
f 19/32/41 20/31/41 21/28/41 49/69/41
f 49/69/41 21/28/41 22/27/41 23/24/41
f 18/35/41 19/32/41 49/69/41 17/36/41
f 17/36/41 49/69/41 23/24/41 24/23/41
f 26/51/42 25/40/42 50/70/42 27/52/42
f 25/40/42 32/39/42 31/44/42 50/70/42
f 27/52/42 50/70/42 29/48/42 28/47/42
f 50/70/42 31/44/42 30/43/42 29/48/42
f 3/71/8 2/72/8 58/73/8 55/74/8
f 5/75/7 4/76/7 56/77/7 53/78/7
f 7/79/6 6/80/6 54/81/6 51/82/6
f 1/83/5 8/84/5 52/85/5 57/86/5
f 2/72/4 1/83/4 57/86/4 58/73/4
f 4/76/3 3/71/3 55/74/3 56/77/3
f 6/87/2 5/75/2 53/78/2 54/88/2
f 8/84/1 7/89/1 51/90/1 52/85/1
f 9/91/40 16/92/40 70/67/40 74/62/40
f 55/74/8 58/73/8 66/13/8 61/10/8
f 53/78/7 56/77/7 65/9/7 60/6/7
f 51/82/6 54/81/6 64/18/6 59/17/6
f 57/86/5 52/85/5 63/1/5 62/14/5
f 58/73/4 57/86/4 62/14/4 66/13/4
f 56/77/3 55/74/3 61/10/3 65/9/3
f 54/88/2 53/78/2 60/6/2 64/5/2
f 10/93/33 9/91/33 74/62/33 67/61/33
f 12/94/34 11/95/34 71/64/34 68/63/34
f 14/19/35 13/96/35 72/66/35 69/65/35
f 16/92/36 15/20/36 73/68/36 70/67/36
f 11/95/37 10/93/37 67/61/37 71/64/37
f 13/96/38 12/94/38 68/63/38 72/66/38
f 15/20/39 14/19/39 69/65/39 73/68/39
f 7/79/32 8/97/32 79/59/32 75/58/32
f 5/98/31 6/80/31 80/57/31 76/56/31
f 3/99/30 4/100/30 81/55/30 77/54/30
f 1/101/29 2/102/29 82/53/29 78/60/29
f 8/97/28 1/101/28 78/60/28 79/59/28
f 6/80/27 7/79/27 75/58/27 80/57/27
f 4/100/26 5/98/26 76/56/26 81/55/26
f 2/102/25 3/99/25 77/54/25 82/53/25
f 52/85/1 51/90/1 59/2/1 63/1/1
