# Alias OBJ Model File
# Exported from SketchUp, (c) 2000-2012 Trimble Navigation Limited
# File units = inches

mtllib powerinyeccion.mtl

g Mesh1 Cylinder G_728b_6ff6_202a_fbd3_1 G_9e99_a2d1_1458_8552_1 G_3083_3b81_6f93_2209_1 Circle e668_b8a9_ea7f_f414_1 Model

usemtl Color_H06
v 178.029 2130.58 245.724
vt -3.48649 53.7309
vn -0.315213 0.949021 2.81376e-007
v 107.042 2093.45 245.724
vt -5.37165 48.5012
vn -0.845683 0.533686 6.97915e-007
v 159.21 2093.45 371.668
vt 4.08839 48.5012
vn -0.597988 0.533685 0.597989
v 209.405 2130.58 321.473
vt 2.20323 53.7309
vn -0.222889 0.949021 0.222889
f 1/1/1 2/2/2 3/3/3 4/4/4 

v 209.405 2130.58 169.974
vt -3.10075 53.4074
vn -0.222889 0.949021 -0.22289
v 159.21 2093.45 119.779
vt -4.98591 48.1777
vn -0.597988 0.533685 -0.597989
vt 4.47416 48.1777
vt 2.58901 53.4074
f 5/5/5 6/6/6 2/7/2 1/8/1 

v 285.155 2130.58 138.598
vt -2.56515 53.4161
vn -1.57541e-007 0.949021 -0.315213
v 285.155 2093.45 67.6112
vt -4.45029 48.1864
vn -5.99874e-007 0.533685 -0.845684
vt 5.00973 48.1864
vt 3.12462 53.4161
f 7/9/7 8/10/8 6/11/6 5/12/5 

v 360.904 2130.58 169.974
vt -2.1934 53.7518
vn 0.222889 0.949021 -0.222889
v 411.1 2093.45 119.779
vt -4.07855 48.522
vn 0.597988 0.533685 -0.597988
vt 5.38151 48.522
vt 3.49637 53.7518
f 9/13/9 10/14/10 8/15/8 7/16/7 

v 392.281 2130.58 245.724
vt -2.20327 54.2177
vn 0.315212 0.949021 2.81375e-007
v 463.267 2093.45 245.724
vt -4.08842 48.988
vn 0.845683 0.533685 6.97911e-007
vt 5.37164 48.988
vt 3.48649 54.2177
f 11/17/11 12/18/12 10/19/10 9/20/9 

v 360.904 2130.58 321.473
vt -2.58897 54.5412
vn 0.222889 0.949021 0.222889
v 411.1 2093.45 371.668
vt -4.47412 49.3115
vn 0.597988 0.533685 0.597989
vt 4.98591 49.3115
vt 3.10075 54.5412
f 13/21/13 14/22/14 12/23/12 11/24/11 

v 285.155 2130.58 352.85
vt -3.12462 54.5327
vn -1.57542e-007 0.949021 0.315213
v 285.155 2093.45 423.836
vt -5.00977 49.303
vn -5.99874e-007 0.533685 0.845683
vt 4.45029 49.303
vt 2.56515 54.5327
f 15/25/15 16/26/16 14/27/14 13/28/13 

vt -3.49637 54.1971
vt -5.38147 48.9674
vt 4.07855 48.9674
vt 2.1934 54.1971
f 4/29/4 3/30/3 16/31/16 15/32/15 

v 159.21 434.065 371.668
vt -5.38149 3.96957
vn -0.621875 0.475963 0.621877
v 285.155 434.065 423.836
vt 4.07853 3.96957
vn -7.14619e-007 0.475963 0.879465
vt 4.07853 119.123
vt -5.38149 119.123
f 17/33/17 18/34/18 16/35/16 3/36/3 

vt -9.2439 -8.25421
v 285.155 434.065 479.537
vt -0.503976 -15.7398
vn -1.61536e-009 0.475963 0.879465
vt -0.503976 -11.8744
f 17/37/17 19/38/19 18/39/18

v 119.824 434.065 411.055
vt -11.9771 -10.9874
vn -0.621876 0.475963 0.621876
f 17/37/17 20/40/20 19/38/19

v 107.042 434.065 245.724
vt -12.8641 0.485709
vn -0.879465 0.475964 6.966e-007
f 21/41/21 20/40/20 17/37/17

v 51.3415 434.065 245.724
vt -16.7295 0.485709
vn -0.879465 0.475963 8.07682e-010
f 20/40/20 21/41/21 22/42/22

v 119.824 434.065 80.3932
vt -11.9771 11.9589
vn -0.621877 0.475963 -0.621875
f 21/41/21 23/43/23 22/42/22

v 159.21 434.065 119.779
vt -9.2439 9.22567
vn -0.621875 0.475963 -0.621877
f 23/43/23 21/41/21 24/44/24

vt -4.98589 3.96957
vt 4.47419 3.96957
vt 4.47419 119.123
vt -4.98589 119.123
f 24/45/24 21/46/21 2/47/2 6/48/6 

vt -5.37168 3.96957
vt 4.08836 3.96957
vt 4.08836 119.123
vt -5.37168 119.123
f 21/49/21 17/50/17 3/51/3 2/52/2 

v 285.155 434.065 67.6112
vt -4.45029 3.96957
vn -7.14619e-007 0.475963 -0.879465
vt 5.00973 3.96957
vt 5.00973 119.123
vt -4.45029 119.123
f 25/53/25 24/54/24 6/55/6 8/56/8 

v 285.155 434.065 11.9105
vt -0.503976 16.7112
vn -1.61537e-009 0.475963 -0.879465
vt -0.503976 12.8459
f 26/57/26 24/44/24 25/58/25

f 23/43/23 24/44/24 26/57/26

vt 6.48893 3.96957
vt -5.92953 3.96957
v 285.155 323.93 11.9105
vt -5.92953 -3.67331
vn -1.61537e-009 -0.475963 -0.879465
v 119.824 323.93 80.3932
vt 6.48893 -3.67331
vn -0.621877 -0.475963 -0.621875
f 23/59/23 26/60/26 27/61/27 28/62/28 

vt 6.86075 3.96957
v 450.485 434.065 80.3932
vt -5.55771 3.96957
vn 0.621876 0.475963 -0.621876
v 450.485 323.93 80.3932
vt -5.55771 -3.67331
vn 0.621876 -0.475963 -0.621876
vt 6.86075 -3.67331
f 26/63/26 29/64/29 30/65/30 27/66/27 

v 411.1 434.065 119.779
vt 8.23598 9.22567
vt 10.9692 11.9589
f 26/57/26 31/67/29 29/68/29

f 26/57/26 25/58/25 31/67/29

vt -4.07856 3.96957
vt 5.3815 3.96957
vt 5.3815 119.123
vt -4.07856 119.123
f 31/69/29 25/70/25 8/71/8 10/72/10 

v 463.267 434.065 245.724
vt -4.08841 3.96957
vn 0.879465 0.475963 6.96595e-007
vt 5.37165 3.96957
vt 5.37165 119.123
vt -4.08841 119.123
f 32/73/31 31/74/29 10/75/10 12/76/12 

vt 11.8562 0.485709
f 29/68/29 31/67/29 32/77/31

v 518.968 434.065 245.724
vt 15.7215 0.485709
vn 0.879465 0.475963 8.07687e-010
f 29/68/29 32/77/31 33/78/32

v 450.485 434.065 411.055
vt 10.9692 -10.9874
vn 0.621875 0.475963 0.621877
f 32/77/31 34/79/33 33/78/32

v 411.1 434.065 371.668
vt 8.23598 -8.25421
vn 0.621875 0.475963 0.621876
f 35/80/34 34/79/33 32/77/31

f 18/39/18 34/79/33 35/80/34

f 18/39/18 19/38/19 34/79/33

vt 5.9295 3.96957
vt -6.48895 3.96957
v 285.155 323.93 479.537
vt -6.48895 -3.67331
vn -1.61536e-009 -0.475963 0.879465
v 450.485 323.93 411.055
vt 5.9295 -3.67331
vn 0.621875 -0.475963 0.621877
f 34/81/33 19/82/19 36/83/35 37/84/36 

vt 5.55772 3.96957
vt -6.86072 3.96957
v 119.824 323.93 411.055
vt -6.86072 -3.67331
vn -0.621876 -0.475963 0.621876
vt 5.55772 -3.67331
f 19/85/19 20/86/20 38/87/37 36/88/35 

vt 5.56763 3.96957
vt -6.85081 3.96957
v 51.3415 323.93 245.724
vt -6.85081 -3.67331
vn -0.879465 -0.475963 8.07682e-010
vt 5.56763 -3.67331
f 20/89/20 22/90/22 39/91/38 38/92/37 

vt 5.95334 3.96957
vt -6.46511 3.96957
vt -6.46511 -3.67331
vt 5.95334 -3.67331
f 22/93/22 23/94/23 28/95/28 39/96/38 

vt 11.9771 11.9589
vt 11.9771 -10.9874
vt 16.7295 0.485709
f 28/97/28 38/98/37 39/99/38

vt 0.503976 16.7112
f 38/98/37 28/97/28 27/100/27

v 224.354 323.93 245.724
vt 4.72323 0.485709
vn -0.880426 -0.474183 1.6052e-006
f 38/98/37 27/100/27 40/101/39

v 242.162 323.93 202.732
vt 3.48744 3.46917
vn -0.622556 -0.474183 -0.622555
f 40/101/39 27/100/27 41/102/40

v 285.155 323.93 184.924
vt 0.503976 4.70496
vn -1.3677e-006 -0.474181 -0.880427
f 41/102/40 27/100/27 42/103/41

vt -10.9692 11.9589
f 42/103/41 27/100/27 30/104/30

v 328.147 323.93 202.732
vt -2.47949 3.46917
vn 0.622556 -0.474182 -0.622555
f 42/103/41 30/104/30 43/105/42

v 345.955 323.93 245.724
vt -3.71528 0.485709
vn 0.880427 -0.474181 2.04002e-006
f 43/105/42 30/104/30 44/106/43

vt -10.9692 -10.9874
f 37/107/36 44/106/43 30/104/30

v 328.147 323.93 288.716
vt -2.47949 -2.49772
vn 0.622555 -0.474182 0.622557
f 37/107/36 45/108/44 44/106/43

vt 0.503976 -15.7398
f 36/109/35 45/108/44 37/107/36

v 285.155 323.93 306.524
vt 0.503976 -3.7335
vn -7.48375e-007 -0.474181 0.880427
f 36/109/35 46/110/45 45/108/44

v 242.162 323.93 288.716
vt 3.48744 -2.49772
vn -0.622555 -0.474183 0.622557
f 36/109/35 47/111/46 46/110/45

f 36/109/35 40/101/39 47/111/46

f 40/101/39 36/109/35 38/98/37

vt -2.25625 -3.68339
v 223.796 110.555 245.724
vt -2.27106 -18.4906
vn -0.887867 0.4601 1.35593e-006
v 241.768 110.555 289.111
vt 0.987841 -18.4906
vn -0.627816 0.4601 0.627817
vt 0.972996 -3.68339
f 40/112/39 48/113/47 49/114/48 47/115/46 

vt -1.87052 -3.68428
v 241.768 110.555 202.337
vt -1.88537 -18.4915
vn -0.627818 0.460101 -0.627816
vt 1.37357 -18.4915
vt 1.35876 -3.68428
f 41/116/40 50/117/49 48/118/47 40/119/39 

vt -1.3349 -3.68427
v 285.155 110.555 184.365
vt -1.34972 -18.4915
vn -1.09745e-006 0.460101 -0.887867
vt 1.90917 -18.4915
vt 1.89438 -3.68427
f 42/120/41 51/121/50 50/122/49 41/123/40 

vt -0.963165 -3.68334
v 328.542 110.555 202.337
vt -0.977995 -18.4905
vn 0.627817 0.460101 -0.627816
vt 2.28094 -18.4905
vt 2.26611 -3.68334
f 43/124/42 52/125/51 51/126/50 42/127/41 

vt -0.973022 -3.68204
v 346.513 110.555 245.724
vt -0.987847 -18.4893
vn 0.887867 0.4601 1.69937e-006
vt 2.27109 -18.4893
vt 2.25626 -3.68204
f 44/128/43 53/129/52 52/130/51 43/131/42 

vt -1.35873 -3.68114
v 328.542 110.555 289.111
vt -1.37356 -18.4884
vn 0.627816 0.4601 0.627817
vt 1.88534 -18.4884
vt 1.87051 -3.68114
f 45/132/44 54/133/53 53/134/52 44/135/43 

vt -1.89435 -3.68117
v 285.155 110.555 307.082
vt -1.90918 -18.4884
vn -5.34748e-007 0.4601 0.887867
vt 1.34975 -18.4884
vt 1.33492 -3.68117
f 46/136/45 55/137/54 54/138/53 45/139/44 

vt -2.26614 -3.6821
vt -2.28094 -18.4893
vt 0.977958 -18.4893
vt 0.963132 -3.6821
f 47/140/46 49/141/48 55/142/54 46/143/45 

vt -2.28093 -14.4825
v 178.405 43.5829 352.473
vt -4.6606 -21.872
vn -0.638095 0.430896 0.638094
v 285.155 43.5829 396.69
vt 3.35763 -21.872
vn -1.88061e-007 0.430895 0.902402
vt 0.977966 -14.4825
f 49/144/48 56/145/55 57/146/56 55/147/54 

vt -2.27104 -14.8989
v 134.189 43.5829 245.724
vt -4.6507 -22.2884
vn -0.902401 0.430896 9.53362e-007
vt 3.36749 -22.2884
vt 0.987852 -14.8989
f 48/148/47 58/149/57 56/150/55 49/151/48 

vt -1.88537 -15.1879
v 178.405 43.5829 138.975
vt -4.26501 -22.5774
vn -0.638096 0.430896 -0.638092
vt 3.7532 -22.5774
vt 1.37356 -15.1879
f 50/152/49 59/153/58 58/154/57 48/155/47 

vt -1.34973 -15.1803
v 285.155 43.5829 94.7575
vt -3.72941 -22.5698
vn -6.59997e-007 0.430896 -0.902402
vt 4.28883 -22.5698
vt 1.90916 -15.1803
f 51/156/50 60/157/59 59/158/58 50/159/49 

vt -0.977981 -14.8804
v 391.904 43.5829 138.975
vt -3.35762 -22.2699
vn 0.638096 0.430894 -0.638094
vt 4.66061 -22.2699
vt 2.28095 -14.8804
f 52/160/51 61/161/60 60/162/59 51/163/50 

vt -0.987856 -14.464
v 436.121 43.5829 245.724
vt -3.36749 -21.8535
vn 0.902403 0.430893 1.14885e-006
vt 4.65073 -21.8535
vt 2.27108 -14.464
f 53/164/52 62/165/61 61/166/60 52/167/51 

vt -1.37356 -14.175
v 391.904 43.5829 352.473
vt -3.7532 -21.5644
vn 0.638095 0.430894 0.638095
vt 4.26498 -21.5644
vt 1.88534 -14.175
f 54/168/53 63/169/62 62/170/61 53/171/52 

vt -1.90919 -14.1826
vt -4.28885 -21.5721
vt 3.72938 -21.5721
vt 1.34974 -14.1826
f 55/172/54 57/173/56 63/174/62 54/175/53 

vt 7.91185 7.89358
vt 0.503976 10.962
vt -6.9039 7.89358
vt -9.97232 0.485709
vt -6.9039 -6.92213
vt 0.503976 -9.99059
vt 7.91185 -6.92213
vt 10.9803 0.485709
f 59/176/58 60/177/59 61/178/60 62/179/61 63/180/62 57/181/56 56/182/55 58/183/57 

v 518.968 323.93 245.724
vt -15.7215 0.485709
vn 0.879465 -0.475963 8.07687e-010
f 37/107/36 30/104/30 64/184/63

vt 6.85079 3.96957
vt -5.56767 3.96957
vt -5.56767 -3.67331
vt 6.85079 -3.67331
f 29/185/29 33/186/32 64/187/63 30/188/30 

vt 6.46514 3.96957
vt -5.95332 3.96957
vt -5.95332 -3.67331
vt 6.46514 -3.67331
f 33/189/32 34/190/33 37/191/36 64/192/63 

vt -5.00974 3.96957
vt 4.45032 3.96957
vt 4.45032 119.123
vt -5.00974 119.123
f 18/193/18 35/194/34 14/195/14 16/196/16 

vt -4.47412 3.96957
vt 4.9859 3.96957
vt 4.9859 119.123
vt -4.47412 119.123
f 35/197/34 32/198/31 12/199/12 14/200/14 

v 244.081 2130.58 286.798
vt -3.35429 -2.36461
vn -0.621876 0.475964 0.621876
vt -5.76063 -4.77091
vt -0.503976 -6.94831
f 65/201/64 4/202/4 15/203/15

v 227.068 2130.58 245.724
vt -4.53492 0.485709
vn -0.879465 0.475963 -9.75326e-009
f 66/204/65 4/202/4 65/201/64

vt -5.76063 5.74236
f 5/205/5 4/202/4 66/204/65

vt -7.93799 0.485709
f 4/202/4 5/205/5 1/206/1

v 244.081 2130.58 204.65
vt -3.35429 3.33602
vn -0.62188 0.475963 -0.621872
f 67/207/66 5/205/5 66/204/65

vt -0.503976 7.91976
f 5/205/5 67/207/66 7/208/7

v 285.155 2130.58 187.637
vt -0.503976 4.51669
vn -6.50232e-009 0.475965 -0.879464
f 7/208/7 67/207/66 68/209/67

vt 1.82228 121.699
v 244.081 2422.14 204.65
vt 1.82228 141.932
v 285.155 2422.14 187.637
vt -1.26289 141.932
vt -1.26289 121.699
f 67/210/66 69/211/66 70/212/67 68/213/67 

vt 1.28669 121.699
v 227.068 2422.14 245.724
vt 1.28669 141.932
vt -1.79846 141.932
vt -1.79846 121.699
f 66/214/65 71/215/65 69/216/66 67/217/66 

vt 0.900991 121.699
v 244.081 2422.14 286.798
vt 0.900991 141.932
vt -2.18416 141.932
vt -2.18416 121.699
f 65/218/64 72/219/64 71/220/65 66/221/65 

v 285.155 2130.58 303.811
vt 0.89108 121.699
vn -6.50217e-009 0.475963 0.879465
v 285.155 2422.14 303.811
vt 0.89108 141.932
vt -2.19407 141.932
vt -2.19407 121.699
f 73/222/68 74/223/68 72/224/64 65/225/64 

vt -1.82231 121.699
v 326.228 2130.58 286.798
vt 1.26285 121.699
vn 0.621876 0.475964 0.621876
v 326.228 2422.14 286.798
vt 1.26285 141.932
vt -1.82231 141.932
f 73/226/68 75/227/69 76/228/69 74/229/68 

vt -0.503976 -3.54524
vt 4.75268 -4.77091
vt 2.34634 -2.36461
f 73/230/68 13/231/13 75/232/69

f 73/230/68 15/203/15 13/231/13

f 65/201/64 15/203/15 73/230/68

v 343.241 2130.58 245.724
vt 3.52697 0.485709
vn 0.879465 0.475963 -9.75326e-009
f 75/232/69 13/231/13 77/233/70

vt 4.75268 5.74236
f 9/234/9 77/233/70 13/231/13

v 326.228 2130.58 204.65
vt 2.34634 3.33602
vn 0.62188 0.475963 -0.621872
f 9/234/9 78/235/71 77/233/70

f 7/208/7 78/235/71 9/234/9

f 7/208/7 68/209/67 78/235/71

vt 2.19411 121.699
vt 2.19411 141.932
v 326.228 2422.14 204.65
vt -0.891057 141.932
vt -0.891057 121.699
f 68/236/67 70/237/67 79/238/71 78/239/71 

v 294.082 2422.14 236.797
vt 0.115512 1.1052
vn 0.621892 0.475964 -0.621859
f 70/209/67 80/240/72 79/235/71

v 285.155 2422.14 233.099
vt -0.503976 1.36181
vn -9.91282e-006 0.475968 -0.879463
f 70/209/67 81/241/73 80/240/72

v 276.228 2422.14 236.797
vt -1.12343 1.1052
vn -0.621885 0.475959 -0.621871
f 70/209/67 82/242/74 81/241/73

v 272.53 2422.14 245.724
vt -1.38004 0.485709
vn -0.879463 0.475968 9.86607e-006
f 70/209/67 83/243/75 82/242/74

f 83/243/75 70/209/67 69/207/66

f 69/207/66 74/230/68 83/243/75

f 69/207/66 72/201/64 74/230/68

f 72/201/64 69/207/66 71/204/65

v 276.228 2422.14 254.65
vt -1.12343 -0.13374
vn -0.621878 0.475957 0.621878
f 83/243/75 74/230/68 84/244/76

v 285.155 2422.14 258.348
vt -0.503976 -0.390354
vn -9.91282e-006 0.475968 0.879463
f 84/244/76 74/230/68 85/245/77

f 85/245/77 74/230/68 76/232/69

v 294.082 2422.14 254.65
vt 0.115512 -0.13374
vn 0.621886 0.475963 0.621866
f 85/245/77 76/232/69 86/246/78

v 297.779 2422.14 245.724
vt 0.372087 0.485709
vn 0.879467 0.475959 9.86505e-006
f 86/246/78 76/232/69 87/247/79

f 79/235/71 87/247/79 76/232/69

f 79/235/71 80/240/72 87/247/79

vt 0.976883 141.932
v 294.082 2889.49 236.797
vt 0.976883 174.364
v 297.779 2889.49 245.724
vt 0.306364 174.364
vt 0.306364 141.932
f 80/248/72 88/249/72 89/250/79 87/251/79 

vt 0.986776 141.932
v 285.155 2889.49 233.099
vt 0.986776 174.364
vt 0.316242 174.364
vt 0.316242 141.932
f 81/252/73 90/253/73 88/254/72 80/255/72 

vt 0.614909 141.932
v 276.228 2889.49 236.797
vt 0.614909 174.364
vt -0.055589 174.364
vt -0.055589 141.932
f 82/256/74 91/257/74 90/258/73 81/259/73 

vt 0.0794097 141.932
v 272.53 2889.49 245.724
vt 0.0794097 174.364
vt -0.591125 174.364
vt -0.591125 141.932
f 83/260/75 92/261/75 91/262/74 82/263/74 

vt -0.306402 141.932
v 276.228 2889.49 254.65
vt -0.306402 174.364
vt -0.9769 174.364
vt -0.9769 141.932
f 84/264/76 93/265/76 92/266/75 83/267/75 

vt -0.316208 141.932
v 285.155 2889.49 258.348
vt -0.316208 174.364
vt -0.986706 174.364
vt -0.986706 141.932
f 85/268/77 94/269/77 93/270/76 84/271/76 

vt 0.0555357 141.932
v 294.082 2889.49 254.65
vt 0.0555357 174.364
vt -0.614999 174.364
vt -0.614999 141.932
f 86/272/78 95/273/78 94/274/77 85/275/77 

vt 0.591126 141.932
vt 0.591126 174.364
vt -0.0793574 174.364
vt -0.0793574 141.932
f 87/276/79 89/277/79 95/278/78 86/279/78 

f 89/247/79 88/240/72 90/241/73 91/242/74 92/243/75 93/244/76 94/245/77 95/246/78 

v 343.241 2422.14 245.724
f 79/235/71 76/232/69 96/233/70

vt -1.28672 121.699
vt 1.79844 121.699
vt 1.79844 141.932
vt -1.28672 141.932
f 75/280/69 77/281/70 96/282/70 76/283/69 

vt 2.18419 121.699
vt 2.18419 141.932
vt -0.900967 141.932
vt -0.900967 121.699
f 78/284/71 79/285/71 96/286/70 77/287/70 

vt 6.93004 0.485709
f 9/234/9 13/231/13 11/288/11

g Mesh2 Cylinder G_728b_6ff6_202a_fbd3_1 G_9e99_a2d1_1458_8552_1 G_3083_3b81_6f93_2209_1 Circle e668_b8a9_ea7f_f414_1 Model

usemtl Color_A06
v 524.781 1243.51 109.143
vt -18.4209 60.1412
vn 0.369676 -0.577351 -0.728015
v 524.781 1125.56 109.143
vt -18.4209 51.9559
v 420.404 1125.56 143.217
vt -10.8014 51.9559
vn -0.728016 -0.57735 -0.369676
v 420.404 1243.51 143.217
vt -10.8014 60.1412
f 97/289/80 98/290/80 99/291/81 100/292/81 

vt 4.46778 51.9559
vt 4.46778 60.1412
v 490.832 1243.51 5.14733
vt 12.0594 60.1412
vn 0.369678 -0.57735 -0.728015
v 490.832 1335.58 5.14733
vt 12.0594 66.53
vn 0.369678 0.57735 -0.728015
v 524.781 1335.58 109.143
vt 4.46778 66.53
vn 0.369675 0.577351 -0.728015
v 524.781 1453.53 109.143
vt 4.46778 74.7154
v 558.854 1453.53 213.521
vt -3.15166 74.7154
vn 0.728015 0.57735 0.369677
v 558.854 1335.58 213.521
vt -3.15166 66.53
v 593.95 1335.58 321.027
vt -10.9996 66.53
v 593.95 1243.51 321.027
vt -10.9996 60.1412
vn 0.728014 -0.577351 0.369677
v 558.854 1243.51 213.521
vt -3.15166 60.1412
vn 0.728015 -0.57735 0.369677
v 558.854 1125.56 213.521
vt -3.15166 51.9559
f 98/293/80 97/294/80 101/295/82 102/296/83 103/297/84 104/298/84 105/299/85 106/300/85 107/301/85 108/302/86 109/303/87 110/304/87 

v 386.455 1243.51 39.2207
vt -6.52575 14.816
vn -0.728015 -0.57735 -0.369677
vt -13.769 17.1806
vt -16.1249 9.96374
vt -8.88165 7.59917
f 111/305/88 101/306/82 97/307/80 100/308/81 

vt -18.4208 66.53
vt -18.4208 60.1412
v 386.455 1335.58 39.2207
vt -10.8014 66.53
vn -0.728014 0.577351 -0.369677
f 102/309/83 101/310/82 111/292/88 112/311/89 

v 420.404 1335.58 143.217
vt -4.46773 66.53
vn -0.728016 0.57735 -0.369675
vt -12.0594 66.53
vt -12.0594 60.1412
vt -4.46774 60.1412
vt -4.46774 51.9559
v 454.478 1125.56 247.594
vt 3.15168 51.9559
vn -0.369677 -0.577349 0.728015
v 454.478 1243.51 247.594
vt 3.15168 60.1412
v 489.573 1243.51 355.101
vt 10.9996 60.1412
vn -0.369677 -0.57735 0.728015
v 489.573 1335.58 355.101
vt 10.9996 66.53
vn -0.369677 0.57735 0.728015
v 454.478 1335.58 247.594
vt 3.15168 66.53
v 454.478 1453.53 247.594
vt 3.15168 74.7154
v 420.404 1453.53 143.217
vt -4.46773 74.7154
f 113/312/90 112/313/89 111/314/88 100/315/81 99/316/81 114/317/91 115/318/91 116/319/92 117/320/93 118/321/93 119/322/93 120/323/90 

vt 16.1249 9.96374
vt 13.769 17.1806
vt 6.52575 14.816
vt 8.88169 7.59917
f 103/324/84 102/325/83 112/326/89 113/327/90 

vt -18.4209 74.7154
vt -18.4209 66.53
vt -10.8015 66.53
vt -10.8015 74.7154
f 104/328/84 103/329/84 113/330/90 120/331/90 

vt 11.2462 0.355945
vt 18.4894 2.72047
f 120/327/90 119/332/93 105/333/85 104/324/84 

vt 10.8014 74.7154
vt 10.8014 66.53
vt 18.4209 66.53
vt 18.4209 74.7154
f 119/334/93 118/335/93 106/336/85 105/337/85 

vt 13.6817 -7.10449
vt 20.9249 -4.73996
f 118/332/93 117/338/93 107/339/85 106/333/85 

vt 10.8015 66.53
vt 10.8015 60.1412
vt 18.4209 60.1412
f 117/340/93 116/341/92 108/342/86 107/336/85 

vt -20.9249 -4.73996
vt -13.6817 -7.10449
vt -11.2462 0.355945
vt -18.4894 2.72047
f 108/343/86 116/344/92 115/345/91 109/346/87 

vt 10.8014 60.1412
vt 10.8014 51.9559
vt 18.4209 51.9559
f 115/347/91 114/348/91 110/349/87 109/342/87 

f 99/308/81 98/307/80 110/346/87 114/345/91 

