# Alias OBJ Model File
# Exported from SketchUp, (c) 2000-2012 Trimble Navigation Limited
# File units = inches

mtllib PowerCondon.mtl

g Mesh1 Torus G_9e99_a2d1_1458_8552_1 G_3083_3b81_6f93_2209_1 Circle e668_b8a9_ea7f_f414_1 Model

usemtl Color_A02
v 303.134 89.2503 118.796
vt -16.1209 -13.9099
vn 1 0 -1.05843e-007
v 262.541 89.2503 20.7953
vt 16.1209 -13.9099
vn 0.707107 0 -0.707107
v 255.834 112.148 27.5017
vt 15.0177 -6.45799
vn 0.494178 0.715246 -0.494178
v 293.65 112.148 118.796
vt -15.0177 -6.45798
vn 0.698872 0.715247 7.97931e-008
f 1/1/1 2/2/2 3/3/3 4/4/4 

vt -16.1209 13.9099
v 293.65 66.3528 118.796
vt -15.0177 6.45798
vn 0.698872 -0.715247 8.23585e-008
v 255.834 66.3528 27.5017
vt 15.0177 6.45799
vn 0.494177 -0.715246 -0.494177
vt 16.1209 13.9099
f 1/5/1 5/6/5 6/7/6 2/8/2 

v 255.834 66.3528 210.091
vt -15.0177 6.45809
vn 0.494176 -0.715247 0.494177
vt 15.0177 6.45809
vt 16.1209 13.91
v 262.541 89.2503 216.798
vt -16.1209 13.91
vn 0.707107 0 0.707107
f 7/9/7 5/10/5 1/11/1 8/12/8 

v 239.643 56.8684 193.9
vt -12.3544 23.1893
vn -1.25241e-007 -1 -1.83034e-007
v 270.752 56.8684 118.796
vt 12.3544 23.1893
vn -9.88225e-009 -1 -4.24641e-008
vt 15.0177 30.2359
vt -15.0177 30.2359
f 9/13/9 10/14/10 5/15/5 7/16/7 

v 223.452 66.3528 177.709
vt 9.691 -24.1959
vn -0.494177 -0.715247 -0.494177
v 247.855 66.3528 118.796
vt -9.69098 -24.1959
vn -0.698872 -0.715247 -5.10008e-007
vt -12.3544 -31.2425
vt 12.3544 -31.2425
f 11/17/11 12/18/12 10/19/10 9/20/9 

v 216.746 89.2503 171.003
vt 8.58778 -7.40997
vn -0.501582 -0.704863 -0.501581
v 238.37 89.2503 118.796
vt -8.58777 -7.40997
vn -0.709344 -0.704862 -4.85403e-007
vt -9.69097 -14.8619
vt 9.69101 -14.8619
f 13/21/13 14/22/14 12/23/12 11/24/11 

v 164.54 89.2503 192.627
vt 0 -22.4409
vn -2.0106e-007 -0.704864 -0.709342
v 112.333 89.2503 171.003
vt 15.8681 -15.8681
vn 0.501581 -0.704864 -0.501581
v 90.7088 89.2503 118.796
vt 22.4409 0
vn 0.709344 -0.704863 -0
v 112.333 89.2503 66.5902
vt 15.8681 15.8681
vn 0.501581 -0.704864 0.501581
v 164.54 89.2503 44.9657
vt 0 22.4409
vn 0 -0.704864 0.709342
v 216.746 89.2503 66.5902
vt -15.8681 15.8681
vn -0.501581 -0.704864 0.501581
vt -22.4409 0
vt -15.8681 -15.8681
f 15/25/15 16/26/16 17/27/17 18/28/18 19/29/19 20/30/20 14/31/14 13/32/13 

vt 8.58778 -7.41006
vt -8.58778 -7.41006
v 164.54 66.3528 202.112
vt -9.69099 -14.862
vn -2.11252e-007 -0.715248 -0.698871
v 105.627 66.3528 177.709
vt 9.69099 -14.862
vn 0.494177 -0.715248 -0.494176
f 16/33/16 15/34/15 21/35/21 22/36/22 

vt 8.58778 -7.41004
vt -8.58777 -7.41004
vt -9.69095 -14.862
vt 9.691 -14.862
f 15/37/15 13/38/13 11/39/11 21/40/21 

vt -9.69095 -24.1959
vt -12.3543 -31.2425
v 164.54 56.8684 225.009
vn -1.87932e-007 -1 -2.3152e-007
f 21/17/21 11/41/11 9/42/9 23/20/23 

vt -12.3543 23.1893
vt 12.3543 23.1893
v 164.54 66.3528 247.906
vn -2.87233e-007 -0.715247 0.698871
f 23/43/23 9/44/9 7/15/7 24/16/24 

vt -15.0177 6.4581
vt 15.0177 6.4581
v 164.54 89.2503 257.391
vn -3.44783e-007 0 1
f 24/45/24 7/46/7 8/11/8 25/12/25 

vt -16.1209 -13.91
vt 16.1209 -13.91
v 255.834 112.148 210.091
vt 15.0177 -6.4581
vn 0.494177 0.715247 0.494177
v 164.54 112.148 247.906
vt -15.0177 -6.4581
vn -2.72461e-007 0.715247 0.698872
f 25/47/25 8/48/8 26/49/26 27/50/27 

vt 15.0177 -6.45809
vt -15.0177 -6.45809
f 8/47/8 1/48/1 4/51/4 26/52/26 

v 239.643 121.632 193.9
vt -12.3544 -23.1892
vn 0.579034 0.573968 0.579034
vt -15.0177 -30.2358
vt 15.0177 -30.2359
v 270.752 121.632 118.796
vt 12.3544 -23.1892
vn 0.818878 0.573968 5.8173e-007
f 28/53/28 26/54/26 4/55/4 29/56/29 

v 164.54 121.632 225.009
vt -12.3543 -23.1893
vn 6.31026e-008 0.573967 0.818878
vt -15.0177 -30.2359
vt 12.3543 -23.1893
f 30/57/30 27/58/27 26/55/26 28/59/28 

v 89.4358 121.632 193.9
vt -12.3544 -23.1893
vn -0.579034 0.573968 0.579034
v 73.2449 112.148 210.091
vn -0.494177 0.715247 0.494177
vt 15.0177 -30.2358
vt 12.3543 -23.1892
f 31/60/31 32/54/32 27/61/27 30/62/30 

v 58.3269 121.632 118.796
vn -0.818878 0.573967 8.72933e-018
v 35.4294 112.148 118.796
vn -0.698872 0.715247 -0
vt 12.3544 -23.1893
f 33/57/33 34/58/34 32/55/32 31/63/31 

v 89.4358 121.632 43.6927
vn -0.579034 0.573968 -0.579034
v 73.2449 112.148 27.5019
vn -0.494177 0.715247 -0.494177
vn -0.698872 0.715247 7.81644e-018
vn -0.818878 0.573967 -0
f 35/60/35 36/58/36 34/55/37 33/59/38 

v 164.54 121.632 12.5838
vt -12.3543 -23.1892
vn -1.77858e-007 0.573967 -0.818878
v 164.54 112.148 -10.3137
vn -1.07819e-007 0.715246 -0.698872
f 37/64/39 38/54/40 36/61/36 35/63/35 

v 239.643 121.632 43.6927
vn 0.579034 0.573968 -0.579034
f 39/60/41 3/58/3 38/55/40 37/59/39 

f 29/57/29 4/58/4 3/55/3 39/63/41 

v 270.752 517.839 118.796
vt -12.3543 130.27
vn 0.949934 0.312452 6.36276e-007
vt -12.3543 9.84252
vt 12.3544 9.84252
v 239.643 517.839 43.6927
vt 12.3544 130.27
vn 0.671704 0.312453 -0.671704
f 40/65/42 29/66/29 39/67/41 41/68/43 

v 239.643 517.839 193.9
vt -12.3544 130.27
vn 0.671704 0.312451 0.671705
vt -12.3544 9.84252
f 42/69/44 28/70/28 29/67/29 40/68/42 

v 164.54 517.839 225.009
vn 1.99884e-007 0.312452 0.949934
vt 12.3543 9.84252
vt 12.3543 130.27
f 43/65/45 30/66/30 28/71/28 42/72/44 

v 89.4358 517.839 193.9
vn -0.671704 0.312453 0.671704
f 44/69/46 31/70/31 30/71/30 43/72/45 

v 58.3269 517.839 118.796
vn -0.949933 0.312452 1.55868e-017
f 45/65/47 33/66/38 31/67/31 44/68/46 

v 89.4358 517.839 43.6927
vn -0.671704 0.312453 -0.671704
vn -0.949933 0.312452 -0
f 46/69/48 35/70/35 33/71/38 45/72/49 

v 164.54 517.839 12.5838
vn -1.55868e-017 0.312452 -0.949933
f 47/65/50 37/66/39 35/67/35 46/68/48 

vn 0 0.312452 -0.949933
f 41/69/43 39/70/41 37/71/39 47/72/51 

vt -12.3544 91.6499
vt 12.3543 91.6499
vn 1.55868e-017 0.312452 -0.949933
v 164.54 549.261 35.3569
vt 9.70543 103.144
vn 2.92717e-017 0.705637 -0.708574
v 223.54 549.261 59.7958
vt -9.70545 103.144
vn 0.501037 0.705637 -0.501037
f 41/73/43 47/74/52 48/75/53 49/76/54 

vt -12.3543 91.6499
vt 12.3544 91.6499
v 105.539 549.261 59.7958
vt 9.70545 103.144
vn -0.501037 0.705637 -0.501037
vt -9.70543 103.144
f 47/77/50 46/78/48 50/79/55 48/80/53 

vn -0.949933 0.312452 -1.55868e-017
v 81.1001 549.261 118.796
vn -0.708574 0.705637 -2.92717e-017
f 46/73/48 45/74/56 51/75/57 50/76/55 

v 105.539 549.261 177.797
vn -0.501037 0.705637 0.501037
f 45/77/47 44/78/46 52/79/58 51/80/57 

v 164.54 549.261 202.236
vn -2.60278e-007 0.705636 0.708574
f 44/73/46 43/74/45 53/75/59 52/76/58 

vt -12.3543 91.6501
vt 12.3543 91.6501
v 223.54 549.261 177.797
vt 9.70544 103.144
vn 0.501038 0.705636 0.501038
vt -9.70542 103.144
f 43/81/45 42/82/44 54/83/60 53/84/59 

vt -12.3544 91.6501
vt 12.3544 91.6501
v 247.979 549.261 118.796
vn 0.708574 0.705636 1.09682e-007
vt -9.70547 103.144
f 42/85/44 40/86/42 55/83/61 54/87/60 

f 40/77/42 41/78/43 49/79/54 55/80/61 

v 210.168 577.122 118.796
vt -5.3074 82.447
vn 0.829137 0.559046 -5.43163e-007
vt -9.70544 68.8656
vt 9.70543 68.8656
v 196.804 577.122 86.5321
vt 5.30739 82.447
vn 0.586288 0.559046 -0.586288
f 56/88/62 55/89/61 49/90/54 57/91/63 

v 196.804 577.122 151.061
vt -5.30743 82.447
vn 0.586288 0.559046 0.586289
vt -9.70549 68.8656
vt 9.70542 68.8656
f 58/92/64 54/93/60 55/94/61 56/91/62 

v 164.54 577.122 164.425
vt -5.30738 82.4469
vn -1.15296e-006 0.559046 0.829137
vt -9.7054 68.8656
vt 9.70546 68.8656
f 59/95/65 53/96/59 54/97/60 58/91/64 

v 132.275 577.122 151.061
vt -5.30739 82.447
vn -0.586289 0.559045 0.586288
vt -9.70543 68.8656
vt 9.70544 68.8656
vt 5.3074 82.447
f 60/98/66 52/99/58 53/100/59 59/101/65 

v 118.911 577.122 118.796
vn -0.829137 0.559046 -2.33502e-017
vn -0.708574 0.705637 -1.46358e-017
f 61/88/67 51/89/68 52/90/58 60/91/66 

v 132.275 577.122 86.5321
vn -0.586289 0.559045 -0.586288
vn -0.829137 0.559046 -1.55668e-017
f 62/98/69 50/99/55 51/100/68 61/101/70 

v 164.54 577.122 73.1677
vn 1.58348e-007 0.559046 -0.829137
vn 1.46358e-017 0.705637 -0.708574
f 63/88/71 48/89/72 50/90/55 62/91/69 

f 57/98/63 49/99/54 48/100/72 63/101/71 

vt -5.30735 142.067
vt 5.30744 142.067
v 164.54 633.755 86.6616
vt 3.73785 159.693
vn 5.04559e-007 0.482941 -0.875653
v 187.262 633.755 96.0738
vt -3.73779 159.693
vn 0.61918 0.48294 -0.61918
f 57/102/63 63/103/71 64/104/73 65/105/74 

vt -5.30743 142.067
vt 5.30736 142.067
v 141.817 633.755 96.0738
vt 3.73783 159.693
vn -0.61918 0.482941 -0.61918
vt -3.73784 159.693
f 63/106/71 62/107/69 66/108/75 64/109/73 

vt -5.30737 142.067
vt 5.30741 142.067
vn -0.829137 0.559046 -3.11336e-017
v 132.405 633.755 118.796
vn -0.875652 0.482942 -0
vt -3.73778 159.693
f 62/110/69 61/111/76 67/108/77 66/112/75 

vt -5.30741 142.067
vt 5.30737 142.067
v 141.817 633.755 141.519
vt 3.73778 159.693
vn -0.61918 0.482941 0.61918
vt -3.73783 159.693
f 61/113/76 60/114/66 68/115/78 67/116/77 

vt -5.30736 142.067
vt 5.30743 142.067
v 164.54 633.755 150.931
vt 3.73784 159.693
vn -1.31452e-006 0.482942 0.875652
f 60/117/66 59/118/65 69/119/79 68/116/78 

vt -5.30738 142.067
vt 5.30738 142.067
v 187.262 633.755 141.519
vt 3.73781 159.693
vn 0.619179 0.482942 0.61918
vt -3.73781 159.693
f 59/120/65 58/121/64 70/122/80 69/123/79 

v 196.674 633.755 118.796
vn 0.875653 0.482941 -7.53488e-007
f 58/113/64 56/111/62 71/108/81 70/109/80 

vt -5.30744 142.067
vt 5.30735 142.067
vt 3.73779 159.693
vt -3.73785 159.693
f 56/124/62 57/125/63 65/126/74 71/127/81 

vt -3.73785 117.799
vt 3.73779 117.799
v 179.775 644.778 103.561
vt 2.50621 122.279
vn 0.361023 0.85984 -0.361023
v 186.086 644.778 118.796
vt -2.50625 122.279
vn 0.510562 0.859841 -4.69717e-007
f 71/128/81 65/129/74 72/130/82 73/131/83 

vt -3.73779 117.799
vt 3.73785 117.799
v 164.54 644.778 97.2499
vt 2.50625 122.279
vn 4.69717e-007 0.859841 -0.510562
vt -2.50621 122.279
f 65/132/74 64/133/73 74/134/84 72/135/82 

vt -3.73784 117.799
vt 3.73784 117.799
v 149.304 644.778 103.561
vt 2.50622 122.279
vn -0.361022 0.859841 -0.361022
vt -2.50624 122.279
f 64/136/73 66/137/75 75/138/85 74/139/84 

vt -3.7378 117.799
vt 3.73782 117.799
vn -0.875652 0.482942 1.52541e-017
v 142.993 644.778 118.796
vt 2.50623 122.278
vn -0.510561 0.859841 -0
vt -2.50623 122.278
f 66/140/75 67/141/86 76/142/87 75/143/85 

vt -3.73782 117.799
vn -0.875652 0.482942 -1.52541e-017
vt 3.7378 117.799
v 149.304 644.778 134.032
vn -0.361022 0.859841 0.361022
f 67/144/88 68/145/78 77/142/89 76/143/87 

v 164.54 644.778 140.343
vt 2.50624 122.279
vn -6.64276e-007 0.859841 0.510562
vt -2.50622 122.279
f 68/136/78 69/137/79 78/146/90 77/147/89 

v 179.775 644.778 134.032
vn 0.361022 0.859841 0.361022
f 69/144/79 70/145/80 79/142/91 78/143/90 

f 70/136/80 71/137/81 73/146/83 79/147/91 

vt 4.63091 -4.63091
vt 6.54909 0
vt 4.63091 4.63091
vt 0 6.54909
vt -4.63091 4.63091
vt -6.54909 0
vt -4.63091 -4.63091
vt 0 -6.54909
f 79/148/91 73/149/83 72/150/82 74/151/84 75/152/85 76/153/87 77/154/89 78/155/90 

v 164.54 89.2503 -19.7981
vn 1.05843e-007 0 -1
vt 15.0177 -6.45798
vt -15.0177 -6.45799
f 2/1/2 80/2/92 38/156/40 3/157/3 

vt -15.0177 6.45799
v 164.54 66.3528 -10.3137
vt 15.0177 6.45798
vn -1.23654e-007 -0.715247 -0.698872
f 6/158/6 81/159/93 80/8/92 2/5/2 

v 239.643 56.8684 43.6927
vn -9.75569e-008 -1 1.36388e-007
v 164.54 56.8684 12.5838
vn -1.70342e-007 -1 2.27339e-007
f 82/13/94 83/44/95 81/15/93 6/16/6 

v 223.452 66.3528 59.8836
vn -0.494177 -0.715248 0.494176
v 164.54 66.3528 35.4812
vn 7.81643e-018 -0.715248 0.698871
f 84/17/96 85/18/97 83/42/95 82/20/94 

vn 0 -0.715248 0.698871
f 20/33/20 19/34/19 85/35/98 84/36/96 

v 105.627 66.3528 59.8836
vn 0.494177 -0.715248 0.494176
f 19/33/19 18/34/18 86/35/99 85/36/98 

vt 8.58781 -7.41001
vt -8.58775 -7.41001
v 81.2244 66.3528 118.796
vt -9.69095 -14.8619
vn 0.698871 -0.715247 -0
vt 9.69102 -14.8619
f 18/160/18 17/161/17 87/162/100 86/163/99 

vt 8.58775 -7.41001
vt -8.58781 -7.41001
vt -9.69102 -14.8619
vt 9.69095 -14.8619
f 17/164/17 16/165/16 22/166/22 87/167/100 

vt 9.69095 -24.1959
vt -9.69102 -24.1959
v 89.4358 56.8684 193.9
vn -1.58229e-007 -1 1.40448e-007
v 58.3269 56.8684 118.796
vt 12.3543 -31.2425
vn -1.71099e-007 -1 -0
f 87/168/100 22/169/22 88/19/101 89/170/102 

f 22/17/22 21/18/21 23/42/23 88/20/101 

v 73.2449 66.3528 210.091
vt -15.0177 30.2358
vn -0.494177 -0.715247 0.494177
f 88/13/101 23/14/23 24/15/24 90/171/103 

v 66.5383 89.2503 216.797
vn -0.707107 0 0.707107
f 90/9/103 24/10/24 25/11/25 91/12/104 

f 91/47/104 25/48/25 27/51/27 32/52/32 

v 25.945 89.2503 118.796
vn -1 0 -0
f 92/47/105 91/48/104 32/49/32 34/50/34 

v 35.4294 66.3528 118.796
vn -0.698872 -0.715247 -0
f 93/45/106 90/46/103 91/11/104 92/12/105 

f 89/43/102 88/14/101 90/15/103 93/16/106 

v 89.4358 56.8684 43.6927
vn -1.58229e-007 -1 -1.40448e-007
v 73.2449 66.3528 27.5019
f 94/13/107 89/44/102 93/15/106 95/16/11 

vt 9.69102 -24.1959
vn 0.698871 -0.715247 -7.81644e-018
f 86/172/99 87/41/108 89/42/102 94/20/107 

vt 9.69098 -24.1959
vt -9.691 -24.1959
f 85/173/98 86/174/99 94/19/107 83/170/95 

vt 15.0177 30.2358
f 83/13/95 94/14/107 95/175/11 81/16/93 

v 66.5383 89.2503 20.7953
vn -0.707107 0 -0.707107
f 81/9/93 95/10/11 96/11/109 80/12/92 

vn -0.698872 -0.715247 1.56329e-017
f 95/45/11 93/46/110 92/11/105 96/12/109 

f 96/47/109 92/48/105 34/49/34 36/50/36 

f 80/47/92 96/48/109 36/51/36 38/52/40 

f 14/164/14 20/165/20 84/166/96 12/167/12 

f 12/168/12 84/169/96 82/19/94 10/170/10 

f 10/43/10 82/14/94 6/15/6 5/16/5 

g Mesh2 Torus G_9e99_a2d1_1458_8552_1 G_3083_3b81_6f93_2209_1 Circle e668_b8a9_ea7f_f414_1 Model

usemtl Color_A06
v 185.826 321.481 261.688
vt -43.4322 70.5867
vn 0.57735 -0.57735 0.57735
v 185.826 276.32 261.688
vt -43.4322 56.86
v 185.826 276.32 219.65
vt -30.6545 56.86
vn 0.57735 -0.57735 -0.57735
v 185.826 321.481 219.65
vt -30.6545 70.5867
f 97/176/111 98/177/111 99/178/112 100/179/112 

v 143.788 356.73 261.688
vt -6.30756 81.3008
vn -0.57735 0.57735 0.57735
v 100.489 356.73 261.688
vt -19.4684 81.3008
v 100.489 321.481 261.688
vt -19.4684 70.5867
vn -0.57735 -0.57735 0.57735
v 143.788 321.481 261.688
vt -6.30756 70.5867
v 143.788 276.32 261.688
vt -6.30756 56.86
vt 6.47016 56.86
vt 6.47016 70.5867
v 227.712 321.481 261.688
vt 19.2013 70.5867
v 227.712 356.73 261.688
vt 19.2013 81.3008
vn 0.57735 0.57735 0.57735
v 185.826 356.73 261.688
vt 6.47016 81.3008
v 185.826 401.891 261.688
vt 6.47016 95.0275
v 143.788 401.891 261.688
vt -6.30756 95.0275
f 101/180/113 102/181/113 103/182/114 104/183/114 105/184/114 98/185/111 97/186/111 106/187/111 107/188/115 108/189/115 109/190/115 110/191/113 

v 143.788 356.73 219.65
vt -6.30756 -30.6545
vn -0.57735 0.57735 -0.57735
v 100.489 356.73 219.65
vt -19.4684 -30.6545
vt -19.4684 -43.4322
vt -6.30756 -43.4322
f 111/192/116 112/193/116 102/194/113 101/195/113 

v 185.826 356.73 219.65
vt -6.47016 81.3008
vn 0.57735 0.57735 -0.57735
v 227.712 356.73 219.65
vt -19.2013 81.3008
v 227.712 321.481 219.65
vt -19.2013 70.5867
vt -6.47016 70.5867
vt -6.47016 56.86
v 143.788 276.32 219.65
vt 6.30756 56.86
vn -0.57735 -0.57735 -0.57735
v 143.788 321.481 219.65
vt 6.30756 70.5867
v 100.489 321.481 219.65
vt 19.4684 70.5867
vt 19.4684 81.3008
vt 6.30756 81.3008
v 143.788 401.891 219.65
vt 6.30756 95.0275
v 185.826 401.891 219.65
vt -6.47016 95.0275
f 113/196/117 114/197/117 115/198/112 100/199/112 99/200/112 116/201/118 117/202/118 118/203/118 112/204/116 111/205/116 119/206/116 120/207/117 

vt 19.2013 -43.4322
vt 19.2013 -30.6545
vt 6.47016 -30.6545
vt 6.47016 -43.4322
f 107/208/115 114/209/117 113/210/117 108/211/115 

vt -30.6545 81.3008
vt -43.4322 81.3008
f 115/179/112 114/212/117 107/213/115 106/176/111 

vt -19.2013 -30.6545
vt -19.2013 -43.4322
vt -6.47016 -43.4322
vt -6.47016 -30.6545
f 115/214/112 106/215/111 97/216/111 100/217/112 

vt -43.4322 95.0275
vt -30.6545 95.0275
f 109/218/115 108/213/115 113/212/117 120/219/117 

f 120/210/117 119/192/116 110/195/113 109/211/115 

vt 30.6545 95.0275
vt 30.6545 81.3008
vt 43.4322 81.3008
vt 43.4322 95.0275
f 119/220/116 111/221/116 101/222/113 110/223/113 

vt 6.30756 -43.4322
vt 6.30756 -30.6545
f 99/217/112 98/216/111 105/224/114 116/225/118 

vt 30.6545 70.5867
vt 30.6545 56.86
vt 43.4322 56.86
vt 43.4322 70.5867
f 117/226/118 116/227/118 105/228/114 104/229/114 

vt 19.4684 -43.4322
vt 19.4684 -30.6545
f 103/230/114 118/231/118 117/225/118 104/224/114 

f 103/229/114 102/222/113 112/221/116 118/226/118 

