# Alias OBJ Model File
# Exported from SketchUp, (c) 2000-2012 Trimble Navigation Limited
# File units = inches

mtllib rayito.mtl

g Mesh1 Cube G_3083_3b81_6f93_2209_1 Circle e668_b8a9_ea7f_f414_1 Model

usemtl Color_D04
v -12.0827 207.073 32.9928
vt 10.665 32.4348
vn -0.616286 0.178196 0.767097
v -12.0827 207.073 -33.1299
vt -10.665 32.4348
vn -0.616286 0.178196 -0.767097
v 33.9336 147.201 -23.3409
vt -7.50721 8.07595
vn -0.62133 -0.0782267 -0.779634
v 33.9336 147.201 23.2038
vt 7.50721 8.07595
vn -0.62133 -0.0782267 0.779634
f 1/1/1 2/2/2 3/3/3 4/4/4 

v 70.5146 207.073 32.9928
vt 9.19323 -10.665
vn 0.574068 0.583594 0.574337
v 70.5146 207.073 -33.1299
vt 9.19323 10.665
vn 0.574068 0.583594 -0.574337
vt -17.4511 10.665
vt -17.4511 -10.665
f 5/5/5 6/6/6 2/7/2 1/8/1 

vt 10.665 25.6132
vt -10.665 25.6132
v 80.4783 147.201 23.2038
vt -7.50721 6.03415
vn 0.638516 -0.252904 0.726868
v 80.4783 147.201 -23.3409
vt 7.50721 6.03415
vn 0.638516 -0.252904 -0.726868
f 6/9/6 5/10/5 7/11/7 8/12/8 

vt 9.19323 28.856
vt -17.4511 28.856
vt -2.60709 9.28606
vt 12.4073 9.28606
f 5/13/5 1/14/1 4/15/4 7/16/7 

vt 12.4073 8.4884
vt -2.60709 8.4884
v -7.50152 93.8308 20.9723
vt -15.9733 -8.7429
vn -0.575778 -0.19272 0.794569
v 34.58 93.8308 20.9723
vt -2.39858 -8.7429
vn 0.621844 -0.161378 0.766333
f 7/17/7 4/18/4 9/19/9 10/20/10 

vt 7.50721 4.86404
vt -7.50721 4.86404
v -7.50152 93.8308 -21.1094
vt -6.78736 -16.9317
vn -0.575778 -0.19272 -0.794569
vt 6.78736 -16.9317
f 4/21/4 3/22/3 11/23/11 9/24/9 

vt 2.60709 8.4884
vt -12.4073 8.4884
v 34.58 93.8308 -21.1094
vt 2.39858 -8.7429
vn 0.621844 -0.161378 -0.766333
vt 15.9733 -8.7429
f 3/25/3 8/26/8 12/27/12 11/28/11 

vt 17.4511 28.856
vt -9.19323 28.856
vt -12.4073 9.28606
vt 2.60709 9.28606
f 2/29/2 6/30/6 8/31/8 3/32/3 

vt 7.50721 14.2935
vt -7.50721 14.2935
vt -6.78736 -8.41368
vt 6.78736 -8.41368
f 8/33/8 7/34/7 10/35/10 12/36/12 

vt 6.78736 -6.20434
vt -6.78736 -6.20434
v 69.9644 40.4603 5.89725
vt -1.92445 -26.8608
vn 0.569997 -0.491886 0.658142
v 69.9644 40.4603 -6.03433
vt 1.92445 -26.8608
vn 0.569997 -0.491886 -0.658142
f 12/37/12 10/38/10 13/39/13 14/40/14 

vt -2.39858 -6.84919
vt -15.9733 -6.84919
v 58.0329 40.4603 5.89725
vt 5.16685 -24.7391
vn -0.268871 -0.871672 0.409751
vt 9.01575 -24.7391
f 10/41/10 9/42/9 15/43/15 13/44/13 

vt 6.78736 6.68066
vt -6.78736 6.68066
v 58.0329 40.4603 -6.03433
vt -1.92445 -20.583
vn -0.268871 -0.871672 -0.409751
vt 1.92445 -20.583
f 9/45/9 11/46/11 16/47/16 15/48/15 

vt 15.9733 -6.84919
vt 2.39858 -6.84919
vt -9.01575 -24.7391
vt -5.16685 -24.7391
f 11/49/11 12/50/12 14/51/14 16/52/16 

vt -5.16685 -1.92445
vt -5.16685 1.92445
vt -9.01575 1.92445
vt -9.01575 -1.92445
f 15/53/15 16/54/16 14/55/14 13/56/13 

